<svg width="318" height="67" viewBox="0 0 318 67" fill="none" xmlns="http://www.w3.org/2000/svg">
<path d="M11.44 61.88C11.3333 61.8267 11.2 61.8 11.04 61.8C10.9333 61.8 10.7733 61.7733 10.56 61.72C10.5067 61.72 10.48 61.6933 10.48 61.64C10.48 61.5867 10.4533 61.56 10.4 61.56C10.4 61.56 10.4 61.5333 10.4 61.48L9.2 61.24C9.2 61.2933 9.17333 61.32 9.12 61.32C9.12 61.32 9.12 61.3467 9.12 61.4H9.04C8.93333 61.1333 8.74667 61 8.48 61C8.26667 61 8.10667 60.8667 8 60.6C7.89333 60.3867 7.81333 60.1733 7.76 59.96C7.70667 59.8 7.68 59.5867 7.68 59.32C7.62667 58.7333 7.6 58.12 7.6 57.48C7.6 56.8933 7.54667 56.3067 7.44 55.72C7.38667 55.3467 7.36 54.9733 7.36 54.6C7.41333 54.28 7.38667 53.96 7.28 53.64C7.17333 53.32 7.12 52.9733 7.12 52.6C7.17333 52.28 7.14667 51.96 7.04 51.64C6.93333 51.32 6.90667 51 6.96 50.68C7.01333 50.36 7.01333 50.04 6.96 49.72C6.74667 49.0267 6.66667 48.3333 6.72 47.64C6.82667 46.9467 6.82667 46.2533 6.72 45.56C6.61333 44.4933 6.56 43.4533 6.56 42.44C6.61333 41.4267 6.61333 40.3867 6.56 39.32V32.92C6.56 32.3867 6.61333 31.88 6.72 31.4C6.82667 30.8667 6.85333 30.3067 6.8 29.72C6.74667 29.1333 6.69333 28.6 6.64 28.12C6.64 27.5867 6.69333 27.0267 6.8 26.44C6.90667 25.9067 6.93333 25.4 6.88 24.92C6.82667 24.3867 6.85333 23.8533 6.96 23.32C7.06667 22.8933 7.09333 22.4667 7.04 22.04C6.98667 21.56 7.01333 21.1067 7.12 20.68C7.22667 20.36 7.28 20.04 7.28 19.72C7.28 19.3467 7.28 18.9733 7.28 18.6C7.28 18.3333 7.33333 18.12 7.44 17.96C7.54667 17.7467 7.57333 17.5067 7.52 17.24C7.46667 16.9733 7.44 16.7333 7.44 16.52C7.44 16.3067 7.52 16.0933 7.68 15.88V15.64C7.73333 15.2133 7.76 14.7867 7.76 14.36C7.76 13.88 7.78667 13.4 7.84 12.92C7.89333 12.76 7.92 12.6 7.92 12.44C7.97333 12.2267 8.02667 12.04 8.08 11.88C8.08 11.72 8.05333 11.56 8 11.4C8 11.1867 8.08 11.0267 8.24 10.92C8.18667 10.44 8.24 9.90666 8.4 9.32C8.45333 9.16 8.48 9 8.48 8.84C8.48 8.68 8.50667 8.52 8.56 8.36C8.13333 8.46666 7.68 8.57333 7.2 8.68C6.77333 8.73333 6.34667 8.76 5.92 8.76C5.6 8.97333 5.25333 9.05333 4.88 9C4.56 8.94666 4.24 8.97333 3.92 9.08C3.6 9.18666 3.25333 9.24 2.88 9.24C2.56 9.18667 2.21333 9.16 1.84 9.16C1.68 9.16 1.52 9.13333 1.36 9.08C1.2 9.02666 1.04 8.97333 0.88 8.92C0.773333 8.86667 0.64 8.84 0.48 8.84C0.32 8.84 0.16 8.81333 0 8.76V8.2L2.16 7.72C2.48 7.61333 2.8 7.50666 3.12 7.4C3.44 7.29333 3.76 7.18666 4.08 7.08C4.45333 7.02667 4.8 6.97333 5.12 6.92C5.44 6.81333 5.78667 6.70666 6.16 6.6C6.48 6.49333 6.8 6.41333 7.12 6.36C7.49333 6.30667 7.84 6.2 8.16 6.04C8.26667 5.93333 8.4 5.93333 8.56 6.04C8.72 6.09333 8.85333 6.04 8.96 5.88C9.06667 5.77333 9.2 5.77333 9.36 5.88C9.52 5.93333 9.65333 5.85333 9.76 5.64C10.1867 5.64 10.56 5.56 10.88 5.4C11.2 5.18667 11.5467 5.02667 11.92 4.92C12.1867 4.86666 12.4267 4.81333 12.64 4.76C12.8533 4.70666 13.0933 4.62666 13.36 4.52C13.5733 4.41333 13.7867 4.36 14 4.36C14.2667 4.30666 14.5067 4.22666 14.72 4.12C15.0933 4.01333 15.44 3.93333 15.76 3.88C16.08 3.77333 16.4 3.66666 16.72 3.56C16.9333 3.45333 17.12 3.42666 17.28 3.48C17.4933 3.48 17.68 3.42666 17.84 3.32C18.1067 3.21333 18.3467 3.18666 18.56 3.24C18.8267 3.24 19.0667 3.18667 19.28 3.08C19.3867 3.02666 19.6533 2.94666 20.08 2.84C20.5067 2.73333 20.96 2.65333 21.44 2.6C21.92 2.49333 22.3467 2.38666 22.72 2.28C23.1467 2.17333 23.4133 2.06667 23.52 1.96C23.9467 2.01333 24.32 2.04 24.64 2.04C25.0133 1.98666 25.3867 2.09333 25.76 2.36C26.08 2.62666 26.4 2.84 26.72 3C27.0933 3.10666 27.44 3.26666 27.76 3.48C27.92 3.58667 28.16 3.8 28.48 4.12C28.3733 4.38666 28.2133 4.57333 28 4.68C27.84 4.73333 27.68 4.78667 27.52 4.84C27.2533 4.89333 27.0133 4.97333 26.8 5.08C26.64 5.13333 26.4533 5.13333 26.24 5.08C25.8133 5.08 25.44 5.16 25.12 5.32C24.9067 5.37333 24.72 5.4 24.56 5.4C24.4 5.34666 24.2133 5.37333 24 5.48C23.84 5.53333 23.5467 5.61333 23.12 5.72C22.6933 5.82666 22.2133 5.93333 21.68 6.04C21.1467 6.14667 20.6667 6.25333 20.24 6.36C19.8133 6.41333 19.52 6.44 19.36 6.44C19.0933 6.54667 18.8 6.6 18.48 6.6C18.2133 6.6 17.9467 6.68 17.68 6.84C17.68 6.84 17.5467 6.84 17.28 6.84C17.12 6.84 16.96 6.86666 16.8 6.92C16.64 6.92 16.4533 6.97333 16.24 7.08C16.1333 7.18666 15.9733 7.21333 15.76 7.16C15.6 7.10666 15.44 7.13333 15.28 7.24C15.0667 7.34666 14.8267 7.4 14.56 7.4C14.3467 7.34667 14.1067 7.37333 13.84 7.48C13.5733 7.58666 13.28 7.64 12.96 7.64C12.6933 7.64 12.4267 7.66666 12.16 7.72C12.1067 7.77333 12.0533 7.82666 12 7.88C12 7.93333 11.9733 7.98666 11.92 8.04C12.0267 8.36 12.08 8.6 12.08 8.76C12.0267 9.02667 12.0267 9.29333 12.08 9.56C12.1867 9.82667 12.24 10.0933 12.24 10.36C12.24 10.6267 12.24 10.8933 12.24 11.16C12.24 11.3733 12.2933 11.6133 12.4 11.88C12.4533 11.88 12.4533 11.9067 12.4 11.96C12.4 12.0133 12.4267 12.0667 12.48 12.12C12.48 12.9733 12.48 13.8 12.48 14.6C12.5333 15.4 12.5867 16.2267 12.64 17.08V21.96C12.64 22.5467 12.64 23.1067 12.64 23.64C12.6933 24.1733 12.6933 24.7333 12.64 25.32C12.48 26.8667 12.4 28.4133 12.4 29.96C12.4533 31.5067 12.4533 33.0533 12.4 34.6C12.6133 35.7733 12.6933 36.9467 12.64 38.12C12.5867 39.24 12.5867 40.3867 12.64 41.56V48.52C12.64 48.84 12.6133 49.16 12.56 49.48C12.5067 49.7467 12.48 50.04 12.48 50.36C12.4267 50.68 12.4267 51 12.48 51.32C12.5333 51.64 12.5067 51.9333 12.4 52.2C12.2933 52.4667 12.24 52.7333 12.24 53C12.2933 53.32 12.2933 53.6133 12.24 53.88C12.24 54.1467 12.1867 54.4933 12.08 54.92C12.0267 55.08 12 55.24 12 55.4C12.0533 55.6133 12.0267 55.7733 11.92 55.88C11.92 55.88 11.92 55.96 11.92 56.12C11.9733 56.8133 11.92 57.48 11.76 58.12C11.6533 58.8133 11.6267 59.5067 11.68 60.2C11.68 60.3067 11.68 60.44 11.68 60.6C11.7333 60.8133 11.7067 60.9733 11.6 61.08C11.7067 61.1867 11.7067 61.2933 11.6 61.4C11.5467 61.56 11.4933 61.72 11.44 61.88ZM11.68 37.72C11.6267 38.2533 11.5733 39.1333 11.52 40.36C11.52 41.5333 11.52 42.76 11.52 44.04C11.52 45.2667 11.52 46.4133 11.52 47.48C11.5733 48.4933 11.6267 49.08 11.68 49.24V37.72ZM11.68 23.16C11.5733 24.0133 11.52 24.8667 11.52 25.72C11.52 26.5733 11.5733 27.1867 11.68 27.56V23.16ZM11.36 53.08H11.52V51.72C11.4667 51.72 11.4133 51.6933 11.36 51.64V53.08ZM11.2 55.4C11.2533 55.3467 11.3067 55.32 11.36 55.32C11.36 55.2133 11.3333 55.08 11.28 54.92C11.28 54.8133 11.28 54.7067 11.28 54.6H11.2V55.4ZM11.12 57.56C11.0667 57.56 11.04 57.5333 11.04 57.48C11.04 57.48 11.0133 57.48 10.96 57.48C10.96 57.8533 10.9867 58.12 11.04 58.28H11.12V57.56ZM11.68 10.68H11.52C11.52 10.8933 11.5467 11.08 11.6 11.24H11.68V10.68ZM23.5744 40.12C24.001 39.4267 24.3744 38.76 24.6944 38.12C25.0677 37.4267 25.4677 36.7333 25.8944 36.04C26.641 34.76 27.361 33.4533 28.0544 32.12C28.7477 30.7867 29.5477 29.5067 30.4544 28.28C30.721 27.9067 30.9877 27.5333 31.2544 27.16C31.5744 26.7867 31.8944 26.4133 32.2144 26.04C32.801 25.4 33.3877 24.7333 33.9744 24.04C34.561 23.2933 35.0944 22.5467 35.5744 21.8C35.7344 21.5333 35.9477 21.2667 36.2144 21C36.5344 20.7333 36.8277 20.52 37.0944 20.36C37.3077 20.4667 37.4944 20.5733 37.6544 20.68C37.8677 20.7333 38.081 20.8133 38.2944 20.92C39.041 21.1867 39.601 21.8267 39.9744 22.84C40.081 23.16 40.1344 23.48 40.1344 23.8C40.1877 24.12 40.2677 24.44 40.3744 24.76C40.481 25.4 40.5077 26.0667 40.4544 26.76C40.4544 27.4 40.4544 28.0667 40.4544 28.76C40.5077 29.0267 40.5077 29.2667 40.4544 29.48C40.401 29.6933 40.3477 29.9333 40.2944 30.2C40.2944 30.4133 40.2944 30.6267 40.2944 30.84C40.3477 31.0533 40.2944 31.2667 40.1344 31.48V31.88C40.1344 32.4133 40.1077 32.9467 40.0544 33.48C40.001 34.0133 39.921 34.5467 39.8144 35.08C39.7077 35.5067 39.6544 35.9333 39.6544 36.36C39.6544 36.7333 39.6277 37.1333 39.5744 37.56C39.521 38.1467 39.4677 38.76 39.4144 39.4C39.4144 40.04 39.361 40.68 39.2544 41.32V41.48C39.201 42.0667 39.1744 42.6533 39.1744 43.24C39.1744 43.7733 39.121 44.3333 39.0144 44.92C38.9077 45.4 38.8544 45.9067 38.8544 46.44C38.9077 46.92 38.8544 47.4 38.6944 47.88V48.04C38.641 48.5733 38.6144 49.1067 38.6144 49.64C38.6144 50.1733 38.561 50.7067 38.4544 51.24C38.401 51.6667 38.3477 52.0667 38.2944 52.44C38.241 52.8667 38.1877 53.2933 38.1344 53.72C38.081 54.4667 38.0277 55.1867 37.9744 55.88C37.9744 56.5733 37.9477 57.32 37.8944 58.12C37.7877 58.1733 37.681 58.2267 37.5744 58.28C37.521 58.3333 37.441 58.4133 37.3344 58.52C37.281 58.4133 37.2277 58.3333 37.1744 58.28C37.1744 58.28 37.1477 58.2267 37.0944 58.12L36.7744 58.44L36.0544 57.96L35.7344 58.12C35.521 57.9067 35.3877 57.72 35.3344 57.56C35.281 57.6667 35.201 57.7733 35.0944 57.88C35.0944 57.8267 35.041 57.7467 34.9344 57.64C34.881 57.64 34.8277 57.64 34.7744 57.64C34.7744 57.6933 34.721 57.72 34.6144 57.72C34.6144 57.72 34.481 57.72 34.2144 57.72C34.1077 57.6133 34.0277 57.5067 33.9744 57.4H33.4944C33.1744 57.1333 32.9344 56.84 32.7744 56.52C32.6677 56.2 32.561 55.88 32.4544 55.56C32.3477 55.24 32.2944 54.92 32.2944 54.6C32.2944 54.28 32.2944 53.96 32.2944 53.64C32.241 53.4267 32.1877 53.2133 32.1344 53C32.1344 52.7867 32.1077 52.5733 32.0544 52.36C32.0544 52.0933 32.0544 51.8533 32.0544 51.64C32.0544 51.4267 32.001 51.2133 31.8944 51C31.841 50.8933 31.8144 50.8133 31.8144 50.76C31.8677 50.6533 31.8944 50.5467 31.8944 50.44C31.8944 49.64 31.8677 48.84 31.8144 48.04C31.8144 47.24 31.841 46.4667 31.8944 45.72C31.9477 45.1867 31.9744 44.68 31.9744 44.2C32.0277 43.72 32.1077 43.24 32.2144 42.76C32.2677 42.6533 32.2677 42.5733 32.2144 42.52C32.2144 42.4667 32.2144 42.3867 32.2144 42.28C32.2677 41.8 32.321 41.32 32.3744 40.84C32.4277 40.36 32.5077 39.88 32.6144 39.4C32.6677 39.08 32.6944 38.76 32.6944 38.44C32.6944 38.12 32.721 37.8 32.7744 37.48C32.881 36.7333 32.9877 36.04 33.0944 35.4C33.201 34.7067 33.3344 34.0133 33.4944 33.32C33.6544 32.4667 33.8144 31.64 33.9744 30.84C34.1877 29.9867 34.401 29.16 34.6144 28.36C34.8277 27.72 35.0144 27.08 35.1744 26.44C35.3877 25.8 35.601 25.1867 35.8144 24.6C35.9744 24.1733 36.081 23.7733 36.1344 23.4C36.1877 22.9733 36.3477 22.6 36.6144 22.28C36.6677 22.1733 36.6677 22.0667 36.6144 21.96C36.6144 21.8533 36.6144 21.72 36.6144 21.56C36.3477 21.88 36.0544 22.2 35.7344 22.52C35.4144 22.7867 35.1744 23.1333 35.0144 23.56C35.1744 23.4533 35.3077 23.3733 35.4144 23.32C35.5744 23.2667 35.7077 23.1867 35.8144 23.08C35.8677 23.1333 35.8944 23.16 35.8944 23.16C35.4677 23.64 35.0677 24.12 34.6944 24.6C34.321 25.08 33.9477 25.5867 33.5744 26.12C33.1477 26.6533 32.7477 27.1867 32.3744 27.72C32.0544 28.2533 31.7077 28.8133 31.3344 29.4C30.961 29.9867 30.6144 30.5467 30.2944 31.08C29.9744 31.6133 29.6544 32.1733 29.3344 32.76C29.0677 33.2933 28.801 33.8533 28.5344 34.44C28.321 34.9733 28.081 35.5067 27.8144 36.04C27.441 36.7867 27.041 37.5333 26.6144 38.28C26.241 38.9733 25.8944 39.6933 25.5744 40.44C25.1477 41.2933 24.7477 42.1467 24.3744 43C24.001 43.8533 23.6277 44.7067 23.2544 45.56C22.9877 46.04 22.7477 46.5467 22.5344 47.08C22.321 47.56 22.081 48.04 21.8144 48.52C21.761 48.68 21.6544 48.84 21.4944 49C21.1744 49.0533 20.881 49 20.6144 48.84C20.3477 48.6267 20.0544 48.5733 19.7344 48.68C19.6277 48.6267 19.4944 48.5733 19.3344 48.52C19.2277 48.4667 19.0944 48.4133 18.9344 48.36C18.6677 47.9867 18.481 47.5867 18.3744 47.16C18.321 46.7333 18.241 46.3067 18.1344 45.88C18.0277 45.3467 17.9744 44.84 17.9744 44.36C17.9744 43.88 17.921 43.4 17.8144 42.92C17.761 42.28 17.7344 41.64 17.7344 41C17.7344 40.36 17.8144 39.72 17.9744 39.08V38.52C18.0277 37.9333 18.0544 37.3733 18.0544 36.84C18.0544 36.3067 18.1077 35.7467 18.2144 35.16C18.321 34.3067 18.4277 33.48 18.5344 32.68C18.6944 31.8267 18.8544 30.9467 19.0144 30.04C19.281 28.4933 19.601 26.9467 19.9744 25.4C20.3477 23.8533 20.721 22.3067 21.0944 20.76C21.3077 19.8533 21.5477 19 21.8144 18.2C22.081 17.3467 22.3477 16.4933 22.6144 15.64C22.881 14.5733 23.201 13.56 23.5744 12.6C23.9477 11.5867 24.3477 10.5733 24.7744 9.56C25.041 8.81333 25.3344 8.12 25.6544 7.48C26.0277 6.78666 26.4277 6.12 26.8544 5.48C27.0677 5.21333 27.2544 4.97333 27.4144 4.76C27.6277 4.54667 27.841 4.30667 28.0544 4.04H29.0144C29.281 4.2 29.5744 4.36 29.8944 4.52C30.2144 4.68 30.561 4.86667 30.9344 5.08C31.0944 5.29333 31.1744 5.53333 31.1744 5.8C31.1744 6.01333 31.1744 6.25333 31.1744 6.52C31.0677 6.94666 30.9877 7.34666 30.9344 7.72C30.881 8.04 30.801 8.41333 30.6944 8.84C30.4277 10.0667 30.1344 11.2667 29.8144 12.44C29.5477 13.56 29.2544 14.7333 28.9344 15.96C28.6677 17.1333 28.3744 18.3067 28.0544 19.48C27.7877 20.6 27.4944 21.7733 27.1744 23C27.0677 23.5867 26.9344 24.2 26.7744 24.84C26.6677 25.4267 26.5344 26.0133 26.3744 26.6C26.2677 27.24 26.1344 27.88 25.9744 28.52C25.8677 29.16 25.7344 29.7733 25.5744 30.36C25.4677 30.8933 25.361 31.4267 25.2544 31.96C25.1477 32.4933 25.041 33.0267 24.9344 33.56C24.8277 34.1467 24.6944 34.76 24.5344 35.4C24.3744 35.9867 24.241 36.5733 24.1344 37.16C24.0277 37.5867 23.921 38.0133 23.8144 38.44C23.7077 38.8133 23.601 39.2133 23.4944 39.64C23.441 39.7467 23.4144 39.8267 23.4144 39.88C23.4677 39.9333 23.4944 40.0133 23.4944 40.12H23.5744ZM39.6544 27.08H39.7344V24.6H39.6544V27.08ZM37.6544 47.8H37.7344V46.04H37.6544V47.8ZM38.2944 39.8H38.2144V41.4H38.2944V39.8ZM37.8944 44.04H37.7344V44.52V45.16C37.7877 45.2667 37.8144 45.4 37.8144 45.56H37.8944V44.04ZM37.4144 49.96C37.4677 49.96 37.521 49.9867 37.5744 50.04V48.44H37.4144V49.96ZM37.3344 50.6H37.2544V51.16C37.2544 51.2667 37.2277 51.3733 37.1744 51.48C37.1744 51.5867 37.201 51.6933 37.2544 51.8V52.2H37.3344V50.6ZM37.9744 43.4H38.0544V41.8H37.9744V43.4ZM37.0944 54.6H37.1744V53.24C37.121 53.24 37.0944 53.2133 37.0944 53.16V54.6ZM38.3744 39.16H38.4544V38.68V38.2V37.8L38.3744 37.88V39.16ZM39.5744 28.44H39.4944V29.48H39.5744V28.44ZM38.7744 34.52H38.6944V35.56H38.7744V34.52ZM38.6144 36.2C38.561 36.4667 38.5344 36.6533 38.5344 36.76C38.5344 36.8133 38.561 36.9733 38.6144 37.24V36.2ZM39.0944 32.44H39.1744V31.56H39.0944V32.44ZM39.0144 33.08C38.9077 33.2933 38.8544 33.4267 38.8544 33.48C38.8544 33.5333 38.9077 33.6933 39.0144 33.96V33.08ZM39.2544 30.92H39.3344V30.28H39.2544V30.92ZM24.8544 28.52H24.7744C24.7744 28.68 24.801 28.8133 24.8544 28.92V28.52ZM26.1344 23H26.0544V23.24H26.2144C26.161 23.1867 26.1344 23.1067 26.1344 23ZM25.9744 23.72H25.8944V23.96H25.9744V23.72ZM25.4144 26.04H25.3344V26.36H25.4144V26.04ZM25.1744 27.16C25.2277 27.0533 25.2544 27 25.2544 27C25.2544 26.9467 25.2277 26.92 25.1744 26.92C25.1744 26.92 25.1744 26.8933 25.1744 26.84V27.16ZM25.0144 28.04H25.0944V27.72H25.0144V28.04ZM24.6944 29.4H24.6144V29.64H24.6944V29.4ZM24.4544 30.6H24.5344V30.28H24.3744C24.4277 30.3867 24.4544 30.4933 24.4544 30.6ZM24.2144 31.48H24.3744C24.3744 31.3733 24.3477 31.2667 24.2944 31.16C24.241 31.2667 24.2144 31.3733 24.2144 31.48ZM22.3744 40.28H22.4544V40.04H22.3744V40.28ZM22.6144 39.4L22.6944 39.32V39.08H22.6144V39.4ZM22.9344 37.72H23.0944C23.0944 37.6667 23.0677 37.64 23.0144 37.64C23.0144 37.5867 23.0144 37.5333 23.0144 37.48H22.9344V37.72ZM23.1744 36.84H23.2544V36.52H23.1744V36.84ZM23.5744 34.92H23.4944C23.4944 35.0267 23.521 35.1067 23.5744 35.16V34.92ZM23.8144 33.96H23.6544C23.7077 34.0133 23.7344 34.0933 23.7344 34.2H23.8144V33.96ZM23.9744 33H23.8944V33.32H23.9744V33ZM24.2144 32.12H24.0544V32.44H24.1344C24.1344 32.3333 24.161 32.2267 24.2144 32.12ZM55.7444 31C55.7977 31.2133 55.7444 31.3733 55.5844 31.48C55.4777 31.5867 55.3977 31.7467 55.3444 31.96H55.0244C54.811 32.2267 54.5977 32.52 54.3844 32.84C54.2244 33.1067 54.0377 33.3733 53.8244 33.64C53.451 34.0667 53.0777 34.4933 52.7044 34.92C52.3844 35.3467 52.0377 35.7733 51.6644 36.2C51.451 36.4133 51.2644 36.6267 51.1044 36.84C50.9444 37.0533 50.7577 37.24 50.5444 37.4C50.4377 37.56 50.2777 37.72 50.0644 37.88C49.9044 37.9867 49.7177 38.12 49.5044 38.28C49.5044 38.7067 49.4777 39.16 49.4244 39.64C49.371 40.0667 49.371 40.4933 49.4244 40.92C49.4777 41.56 49.5044 42.2 49.5044 42.84C49.5577 43.48 49.691 44.0933 49.9044 44.68C49.9577 44.7867 50.011 44.92 50.0644 45.08C50.1177 45.24 50.171 45.3733 50.2244 45.48C51.291 45.2133 52.251 44.84 53.1044 44.36C54.011 43.8267 54.891 43.24 55.7444 42.6C56.8644 41.5333 57.9044 40.4933 58.8644 39.48C59.8777 38.4667 60.6244 37.2667 61.1044 35.88C61.1044 35.88 61.1577 35.7733 61.2644 35.56C61.371 35.6133 61.451 35.64 61.5044 35.64C61.5577 35.64 61.6377 35.6667 61.7444 35.72C61.7977 35.8267 61.851 35.96 61.9044 36.12C61.9577 36.28 62.011 36.44 62.0644 36.6C62.1177 36.4933 62.1444 36.4133 62.1444 36.36C62.1977 36.3067 62.251 36.2267 62.3044 36.12C62.3044 36.3867 62.3044 36.6267 62.3044 36.84C62.3577 37 62.3844 37.16 62.3844 37.32H62.4644C62.4644 37.2133 62.4644 37.1333 62.4644 37.08C62.5177 36.9733 62.571 36.8133 62.6244 36.6C62.6777 36.8667 62.7044 37.1067 62.7044 37.32C62.7044 37.48 62.731 37.6667 62.7844 37.88H62.8644C62.8644 37.72 62.8644 37.5867 62.8644 37.48C62.9177 37.32 62.9444 37.16 62.9444 37C63.051 37.4267 63.0777 37.7733 63.0244 38.04C63.0244 38.2533 62.9444 38.5733 62.7844 39C62.1444 40.2267 61.2644 41.4 60.1444 42.52C59.0777 43.5867 58.0377 44.52 57.0244 45.32C56.2777 45.9067 55.451 46.4933 54.5444 47.08C54.2244 47.2933 53.8777 47.48 53.5044 47.64C53.1844 47.8 52.811 47.9067 52.3844 47.96C52.3844 47.96 52.2777 48.0133 52.0644 48.12C51.4244 47.9067 50.7577 47.72 50.0644 47.56C49.4244 47.4 48.7577 47.2133 48.0644 47C46.8377 46.6267 45.8777 45.8 45.1844 44.52C44.7044 43.56 44.3844 42.52 44.2244 41.4C43.9044 39.64 43.8777 37.8267 44.1444 35.96C44.4644 32.5467 45.4777 29.4 47.1844 26.52C47.451 26.0933 47.7177 25.6933 47.9844 25.32C48.3044 24.9467 48.5977 24.5467 48.8644 24.12C49.0777 23.8 49.3177 23.5333 49.5844 23.32C49.851 23.1067 50.1177 22.8667 50.3844 22.6C51.8777 21.2667 53.531 21.1067 55.3444 22.12C55.611 22.2267 55.8244 22.3333 55.9844 22.44C56.1977 22.5467 56.411 22.68 56.6244 22.84C56.9977 23.0533 57.3177 23.3467 57.5844 23.72C57.691 23.8267 57.7977 24.04 57.9044 24.36C58.011 25.1067 57.9844 25.8 57.8244 26.44C57.6644 27.08 57.451 27.72 57.1844 28.36C57.0244 28.7867 56.8377 29.1867 56.6244 29.56C56.4644 29.88 56.3044 30.2267 56.1444 30.6C56.0377 30.6 55.9844 30.6267 55.9844 30.68C55.931 30.5733 55.9044 30.52 55.9044 30.52C55.851 30.5733 55.8244 30.6267 55.8244 30.68C55.5044 30.7867 55.5044 30.92 55.8244 31.08L55.7444 31ZM56.5444 29.24C56.2244 29.24 56.2244 29.3467 56.5444 29.56V29.24C56.7044 29.1333 56.7044 29 56.5444 28.84V29.24ZM54.9444 23.96C54.8377 24.0667 54.731 24.1733 54.6244 24.28C54.5177 24.3867 54.411 24.4933 54.3044 24.6C54.0377 25.0267 53.7444 25.4533 53.4244 25.88C53.1577 26.3067 52.891 26.76 52.6244 27.24C51.9844 28.4667 51.4244 29.72 50.9444 31C50.5177 32.28 50.171 33.5867 49.9044 34.92C49.9044 35.0267 49.9044 35.16 49.9044 35.32C49.9577 35.4267 49.9844 35.56 49.9844 35.72C50.251 35.4 50.4644 35.1067 50.6244 34.84C50.8377 34.5733 51.051 34.3067 51.2644 34.04C51.9577 33.1333 52.5444 32.2 53.0244 31.24C53.5577 30.28 54.0377 29.2667 54.4644 28.2C54.731 27.56 54.9177 26.8933 55.0244 26.2C55.131 25.5067 55.1044 24.76 54.9444 23.96ZM48.5444 41.8V39.72V41.8ZM57.5844 25.64H57.4244C57.4244 25.7467 57.4244 25.8533 57.4244 25.96C57.4777 26.0133 57.5044 26.0933 57.5044 26.2H57.5844V25.64ZM48.7044 37H48.7844V36.44H48.7044V37ZM48.9444 35.32H48.8644V35.72H48.9444V35.32ZM57.3444 26.84H57.2644C57.2644 26.8933 57.2644 26.9467 57.2644 27C57.3177 27.0533 57.3444 27.1067 57.3444 27.16H57.4244C57.4244 27 57.3977 26.8933 57.3444 26.84ZM56.9444 28.28C56.9977 28.2267 57.0244 28.2 57.0244 28.2V27.96H56.9444V28.28ZM57.1844 27.4C57.131 27.4 57.1044 27.4267 57.1044 27.48V27.72H57.1844V27.4ZM55.8244 30.68C55.8244 30.6267 55.851 30.5733 55.9044 30.52C55.9044 30.5733 55.931 30.6267 55.9844 30.68C55.9844 30.7333 55.9844 30.8133 55.9844 30.92C55.9844 30.9733 55.9044 31 55.7444 31L55.8244 31.08V30.68ZM99.6 29.96C99.6533 30.0667 99.7067 30.1733 99.76 30.28C99.8667 30.3867 99.92 30.4933 99.92 30.6C99.9733 31.1867 100.027 31.8 100.08 32.44C100.133 33.0267 100.107 33.6133 100 34.2C99.68 36.28 98.9333 38.0933 97.76 39.64C97.6 39.9067 97.4133 40.1467 97.2 40.36C96.9867 40.52 96.7733 40.7067 96.56 40.92C96.08 41.3467 95.5733 41.7467 95.04 42.12C94.56 42.44 94.0267 42.68 93.44 42.84C92.6933 43.0533 92 43.2667 91.36 43.48C90.72 43.6933 90.0267 43.8267 89.28 43.88C89.0667 43.9867 88.96 44.04 88.96 44.04C88.64 43.9333 88.32 43.8533 88 43.8C87.68 43.6933 87.3333 43.5867 86.96 43.48C86.9067 43.64 86.8533 43.8 86.8 43.96C86.7467 44.0667 86.6933 44.1733 86.64 44.28C86.5333 44.9733 86.3733 45.64 86.16 46.28C85.9467 46.8667 85.76 47.5067 85.6 48.2C85.4933 48.6267 85.44 49.0533 85.44 49.48C85.4933 49.8533 85.52 50.2533 85.52 50.68C85.6267 51.2133 85.68 51.6133 85.68 51.88V53.88C85.68 54.3067 85.7067 54.7067 85.76 55.08C85.8133 55.4533 85.84 55.8533 85.84 56.28C85.84 56.7067 85.8133 57.1067 85.76 57.48C85.76 57.8533 85.8133 58.2533 85.92 58.68C86.0267 59.8533 86.0533 61.0267 86 62.2C85.9467 63.3733 85.9733 64.5467 86.08 65.72L85.76 66.04C85.44 65.9333 85.2267 65.9067 85.12 65.96C85.0133 65.8533 84.88 65.7733 84.72 65.72C84.6133 65.72 84.5067 65.6933 84.4 65.64C84.2933 65.5867 84.1867 65.56 84.08 65.56C84.0267 65.56 83.9733 65.48 83.92 65.32L83.68 65.56C82.9867 65.5067 82.56 65.1067 82.4 64.36C82.08 63.4 81.84 62.3867 81.68 61.32C81.5733 60.84 81.4667 60.3333 81.36 59.8C81.3067 59.32 81.2267 58.84 81.12 58.36C81.0667 57.9867 81.04 57.6133 81.04 57.24C81.04 56.92 80.9867 56.5733 80.88 56.2C80.7733 55.72 80.72 55.24 80.72 54.76C80.72 54.3333 80.6667 53.88 80.56 53.4V53.24C80.5067 52.6533 80.48 52.04 80.48 51.4C80.48 50.8133 80.4267 50.2267 80.32 49.64C80.2133 48.52 80.16 47.4 80.16 46.28C80.2133 45.1067 80.2133 43.96 80.16 42.84C80.1067 42.4133 80.0533 42.0133 80 41.64C79.9467 41.2667 79.9467 40.8667 80 40.44C80.1067 39.5333 80.1333 38.6533 80.08 37.8C80.08 36.9467 80.1333 36.0667 80.24 35.16C80.2933 34.68 80.32 34.2 80.32 33.72C80.32 33.24 80.3467 32.76 80.4 32.28C80.5067 31.5333 80.56 30.7867 80.56 30.04C80.6133 29.24 80.6667 28.4667 80.72 27.72C80.8267 26.8667 80.9867 25.72 81.2 24.28C81.4133 22.84 81.6 21.6933 81.76 20.84C81.8667 20.4133 81.9733 19.9867 82.08 19.56C82.1867 19.08 82.3733 18.6533 82.64 18.28H83.36C83.5733 18.3867 83.7867 18.52 84 18.68C84.2133 18.7867 84.4533 18.92 84.72 19.08C84.88 19.4533 84.9333 19.8533 84.88 20.28C84.88 20.6533 84.9333 21.0533 85.04 21.48C85.0933 21.9067 85.0933 22.4133 85.04 23C85.04 23.5333 85.0133 24.12 84.96 24.76C84.96 25.4 84.9333 26.0133 84.88 26.6C84.88 27.1867 84.9067 27.6667 84.96 28.04C85.12 29.8533 85.1733 31.6667 85.12 33.48C85.0667 35.24 85.0667 37.0267 85.12 38.84C85.1733 39.3733 85.2 39.9067 85.2 40.44C85.2533 40.92 85.28 41.4533 85.28 42.04C85.3867 41.9867 85.44 41.96 85.44 41.96C85.9733 41.48 86.32 40.92 86.48 40.28C86.6933 39.64 86.9067 39 87.12 38.36C87.44 37.4533 87.76 36.5467 88.08 35.64C88.4 34.7333 88.7733 33.8533 89.2 33C89.6267 31.9867 90.1067 31.0533 90.64 30.2C90.9067 29.72 91.2533 29.1867 91.68 28.6C91.7867 28.44 91.8933 28.2533 92 28.04C92.16 27.8267 92.2933 27.6133 92.4 27.4C92.6667 26.8667 93.0133 26.44 93.44 26.12C93.92 25.8 94.4533 25.64 95.04 25.64C95.7867 25.5333 96.5067 25.7467 97.2 26.28C97.6267 26.6 97.9733 26.9733 98.24 27.4C98.56 27.7733 98.8533 28.1467 99.12 28.52C99.44 28.9467 99.6 29.4267 99.6 29.96C99.3333 30.0133 99.3333 30.1733 99.6 30.44V29.96ZM87.84 40.84L88 41C88.2133 40.9467 88.48 40.8133 88.8 40.6L90 39.88C91.8667 38.8667 93.44 37.64 94.72 36.2C95.0933 35.7733 95.44 35.3467 95.76 34.92C96.08 34.4933 96.3467 34.04 96.56 33.56C96.8267 32.92 97.04 32.28 97.2 31.64C97.4133 30.9467 97.4933 30.2267 97.44 29.48C97.3333 28.8933 97.2 28.36 97.04 27.88C96.88 27.3467 96.5333 26.8933 96 26.52C95.5733 26.7333 95.2533 26.92 95.04 27.08C94.08 27.9333 93.3067 28.8133 92.72 29.72C92.24 30.4667 91.76 31.24 91.28 32.04C90.8533 32.84 90.4533 33.64 90.08 34.44C89.6533 35.3467 89.28 36.28 88.96 37.24C88.64 38.1467 88.32 39.08 88 40.04C87.9467 40.1467 87.92 40.28 87.92 40.44C87.92 40.6 87.8933 40.7333 87.84 40.84ZM84.24 40.04H84.32C84.32 36.9467 84.3467 33.56 84.4 29.88C84.5067 26.2 84.56 22.8133 84.56 19.72H84.48C84.48 22.8133 84.4267 26.2 84.32 29.88C84.2667 33.56 84.24 36.9467 84.24 40.04ZM99.68 33.24H99.76V32.2C99.76 31.9867 99.76 31.8 99.76 31.64C99.8133 31.48 99.7867 31.2933 99.68 31.08V33.24ZM84.4 46.44H84.48V45H84.4V46.44ZM85.44 42.84C85.28 43.2133 85.28 43.56 85.44 43.88C85.4933 43.7733 85.52 43.6667 85.52 43.56C85.52 43.4533 85.5467 43.3467 85.6 43.24C85.4933 43.0267 85.44 42.8933 85.44 42.84ZM85.2 60.92C85.2 60.8667 85.2267 60.84 85.28 60.84C85.2267 60.7867 85.2 60.7067 85.2 60.6V60.92ZM113.415 44.6C113.362 44.8667 113.255 45.1067 113.095 45.32C112.935 45.48 112.775 45.6667 112.615 45.88C112.348 46.2533 112.055 46.6 111.735 46.92C111.468 47.24 111.122 47.5067 110.695 47.72C110.108 47.7733 109.495 47.6933 108.855 47.48C108.642 47.3733 108.428 47.32 108.215 47.32C108.002 47.2667 107.788 47.2133 107.575 47.16C106.402 46.7333 105.602 45.8533 105.175 44.52C105.015 44.0933 104.882 43.6933 104.775 43.32C104.722 42.8933 104.642 42.4667 104.535 42.04C104.428 41.1333 104.375 40.2533 104.375 39.4C104.375 38.4933 104.402 37.5867 104.455 36.68C104.508 36.0933 104.562 35.5067 104.615 34.92C104.722 34.28 104.828 33.6667 104.935 33.08C105.148 31.5867 105.468 30.0667 105.895 28.52C106.108 27.4533 106.482 26.36 107.015 25.24C107.122 25.08 107.228 24.92 107.335 24.76C107.495 24.6 107.628 24.44 107.735 24.28C108.108 24.3333 108.402 24.44 108.615 24.6C108.828 24.76 109.068 24.8933 109.335 25C109.335 25.1067 109.335 25.1867 109.335 25.24C109.388 25.2933 109.415 25.3733 109.415 25.48C109.522 25.48 109.628 25.4533 109.735 25.4C109.735 25.5067 109.762 25.5867 109.815 25.64C109.868 25.6933 109.895 25.7733 109.895 25.88C109.895 26.4667 109.895 27.0267 109.895 27.56C109.948 28.0933 109.948 28.6267 109.895 29.16C109.788 29.9067 109.708 30.6267 109.655 31.32C109.655 32.0133 109.602 32.7067 109.495 33.4C109.442 33.8267 109.415 34.2533 109.415 34.68C109.468 35.0533 109.442 35.4533 109.335 35.88C109.228 36.7867 109.175 37.6667 109.175 38.52C109.228 39.3733 109.228 40.2533 109.175 41.16C109.175 41.2667 109.122 41.5333 109.015 41.96V42.36C109.122 42.7867 109.148 43.24 109.095 43.72C109.095 44.2 109.148 44.6533 109.255 45.08C109.255 45.1333 109.308 45.2133 109.415 45.32C109.735 45.16 110.002 44.9733 110.215 44.76C111.388 43.2667 112.428 41.6667 113.335 39.96C113.868 38.9467 114.375 37.9333 114.855 36.92C115.388 35.9067 115.948 34.8933 116.535 33.88C116.748 33.4533 116.882 33 116.935 32.52C117.042 32.04 117.148 31.5867 117.255 31.16C117.522 29.9333 117.735 28.7333 117.895 27.56C118.108 26.3867 118.428 25.24 118.855 24.12C118.962 23.9067 119.042 23.72 119.095 23.56C119.148 23.4 119.228 23.2133 119.335 23H119.655H120.135C120.615 23.2667 121.068 23.5067 121.495 23.72C121.975 23.88 122.428 24.0933 122.855 24.36C123.068 24.68 123.202 25.0533 123.255 25.48C123.362 25.8533 123.415 26.2533 123.415 26.68C123.468 27.5333 123.495 28.3867 123.495 29.24C123.548 30.04 123.522 30.8667 123.415 31.72C123.415 32.2533 123.415 32.76 123.415 33.24C123.415 33.72 123.362 34.2 123.255 34.68C123.148 35.1067 123.095 35.5333 123.095 35.96C123.148 36.3333 123.148 36.7333 123.095 37.16C122.988 37.64 122.935 38.12 122.935 38.6C122.988 39.0267 122.962 39.48 122.855 39.96C122.748 40.4933 122.722 41.0267 122.775 41.56C122.828 42.0933 122.802 42.6267 122.695 43.16C122.642 43.5867 122.615 43.72 122.615 43.56C122.615 43.3467 122.615 43.1067 122.615 42.84C122.668 42.52 122.695 42.28 122.695 42.12C122.748 41.96 122.748 42.0933 122.695 42.52C122.642 43.0533 122.615 43.5867 122.615 44.12C122.615 44.6 122.588 45.1067 122.535 45.64C122.428 46.0667 122.322 46.52 122.215 47C122.108 47.4267 122.002 47.8533 121.895 48.28C121.842 48.5467 121.762 48.84 121.655 49.16C121.602 49.4267 121.522 49.6933 121.415 49.96C121.308 50.3867 121.095 50.7067 120.775 50.92C120.402 50.92 120.028 50.8133 119.655 50.6C119.442 50.4933 119.228 50.44 119.015 50.44C118.802 50.3867 118.588 50.3333 118.375 50.28C118.322 50.28 118.268 50.3067 118.215 50.36C118.162 50.36 118.082 50.36 117.975 50.36C117.708 50.0933 117.415 49.88 117.095 49.72C116.775 49.5067 116.562 49.1867 116.455 48.76C116.402 48.4933 116.322 48.2267 116.215 47.96C116.162 47.64 116.135 47.3467 116.135 47.08C116.135 46.3867 116.055 45.72 115.895 45.08C115.735 44.3867 115.708 43.6667 115.815 42.92C115.868 42.5467 115.868 42.44 115.815 42.6C115.815 42.76 115.815 43 115.815 43.32C115.815 43.64 115.788 43.9067 115.735 44.12C115.735 44.28 115.762 44.1467 115.815 43.72C115.868 43.24 115.868 42.7867 115.815 42.36C115.815 41.88 115.868 41.4 115.975 40.92C116.082 40.4933 116.135 40.12 116.135 39.8C116.135 39.4267 116.135 39.0267 116.135 38.6V38.12C115.602 39.1867 115.068 40.2 114.535 41.16C114.055 42.12 113.575 43.08 113.095 44.04V44.76C113.148 44.7067 113.202 44.68 113.255 44.68C113.308 44.68 113.362 44.6533 113.415 44.6ZM121.415 45.56H121.255C121.255 45.88 121.255 45.9067 121.255 45.64C121.308 45.3733 121.335 45.0533 121.335 44.68C121.335 44.2533 121.335 43.9067 121.335 43.64C121.388 43.32 121.415 43.32 121.415 43.64C121.468 43.6933 121.522 43.72 121.575 43.72C121.575 43.4 121.548 43.3733 121.495 43.64C121.495 43.9067 121.495 44.2533 121.495 44.68C121.495 45.0533 121.468 45.3733 121.415 45.64C121.415 45.9067 121.415 45.88 121.415 45.56ZM121.495 44.36H121.575V41.88H121.495V44.36ZM121.735 40.84C121.735 40.8933 121.762 40.92 121.815 40.92V39.16H121.735V40.84ZM122.535 29.8H122.455V31.4H122.535V29.8ZM108.375 37.88H108.295V39.24H108.375V37.88ZM122.055 36.12H122.135V34.76H122.055V36.12ZM121.975 37C121.922 37 121.868 36.9733 121.815 36.92V37.48V37.88C121.815 37.9867 121.815 38.0667 121.815 38.12C121.868 38.1733 121.895 38.2267 121.895 38.28H121.975V37ZM122.215 33.96H122.295V32.52H122.215V33.96ZM121.335 46.12H121.415V44.76H121.335V46.12ZM109.415 27H109.495V26.12H109.415V27ZM108.535 35.96V35.32V35.96ZM109.015 30.44H109.095V29.96H109.015V30.44ZM121.015 47.64H120.935V48.12H121.015V47.64ZM108.695 33.8H108.775V33.24H108.695V33.8ZM109.335 28.36H109.175C109.228 28.4133 109.255 28.4933 109.255 28.6H109.335V28.36ZM108.855 31.96C108.908 31.9067 108.935 31.8533 108.935 31.8V31.72C108.935 31.6667 108.908 31.64 108.855 31.64C108.855 31.64 108.855 31.5867 108.855 31.48V31.96ZM121.175 46.76H121.095C121.095 46.8667 121.122 46.9467 121.175 47H121.255C121.255 46.9467 121.228 46.92 121.175 46.92C121.175 46.8667 121.175 46.8133 121.175 46.76ZM120.855 48.76H120.775V49.08C120.828 49.08 120.855 49.0533 120.855 49V48.76ZM113.415 44.6V44.2C113.575 44.36 113.575 44.4933 113.415 44.6ZM131.351 48.52C130.978 48.4133 130.631 48.3333 130.311 48.28C130.045 48.2267 129.725 48.1467 129.351 48.04C129.245 47.9333 129.138 47.8 129.031 47.64C128.925 47.48 128.818 47.32 128.711 47.16C128.231 46.0933 127.911 45.0267 127.751 43.96C127.645 43.48 127.565 43 127.511 42.52C127.458 41.9867 127.378 41.48 127.271 41V40.84C127.165 39.6667 127.085 38.4933 127.031 37.32C126.978 36.1467 126.978 34.9733 127.031 33.8C127.085 33.0533 127.138 32.3333 127.191 31.64C127.245 30.9467 127.325 30.2533 127.431 29.56C127.538 28.76 127.645 27.96 127.751 27.16C127.858 26.3067 128.045 25.48 128.311 24.68C128.471 24.2533 128.605 23.8267 128.711 23.4C128.818 22.9733 129.005 22.5467 129.271 22.12L129.911 21.48C130.285 21.64 130.605 21.8 130.871 21.96C131.191 22.0667 131.485 22.2267 131.751 22.44C131.858 22.5467 131.938 22.68 131.991 22.84C132.098 22.9467 132.205 23.0533 132.311 23.16C132.418 23.2667 132.471 23.4 132.471 23.56C132.471 23.72 132.498 23.8533 132.551 23.96C132.605 24.3333 132.631 24.7067 132.631 25.08C132.631 25.4 132.658 25.7467 132.711 26.12C132.818 27.1867 132.871 28.2267 132.871 29.24C132.871 30.2533 132.898 31.2667 132.951 32.28V32.6C133.058 32.4933 133.165 32.3333 133.271 32.12C133.591 31.5867 133.885 31.0533 134.151 30.52C134.471 29.9867 134.791 29.4533 135.111 28.92C135.751 27.96 136.391 27.1067 137.031 26.36C137.458 25.88 137.858 25.4267 138.231 25C138.658 24.52 139.085 24.0667 139.511 23.64C140.045 23.1067 140.605 22.7333 141.191 22.52H142.151C142.258 22.68 142.418 22.7867 142.631 22.84C142.898 22.84 143.085 23 143.191 23.32C142.978 23.32 142.765 23.3467 142.551 23.4C142.391 23.4 142.205 23.4 141.991 23.4C141.351 23.9867 140.765 24.6 140.231 25.24C139.751 25.88 139.271 26.5467 138.791 27.24C138.045 28.1467 137.378 29.1067 136.791 30.12C136.258 31.1333 135.698 32.1467 135.111 33.16C134.738 33.8533 134.391 34.5467 134.071 35.24C133.805 35.9333 133.511 36.6267 133.191 37.32C133.085 37.5867 133.005 37.8267 132.951 38.04C132.898 38.2 132.871 38.4133 132.871 38.68C132.925 39.2133 132.925 39.7467 132.871 40.28C132.871 40.76 132.871 41.24 132.871 41.72C132.925 42.5733 132.898 43.4 132.791 44.2C132.685 45 132.525 45.7733 132.311 46.52C132.205 46.9467 132.071 47.32 131.911 47.64C131.805 47.96 131.618 48.2533 131.351 48.52ZM131.911 42.2C131.858 42.4667 131.805 42.76 131.751 43.08C131.751 43.3467 131.805 43.6133 131.911 43.88V42.2ZM131.911 34.28H131.831V34.92H131.911V34.28ZM152.151 31C152.204 31.2133 152.151 31.3733 151.991 31.48C151.884 31.5867 151.804 31.7467 151.751 31.96H151.431C151.217 32.2267 151.004 32.52 150.791 32.84C150.631 33.1067 150.444 33.3733 150.231 33.64C149.857 34.0667 149.484 34.4933 149.111 34.92C148.791 35.3467 148.444 35.7733 148.071 36.2C147.857 36.4133 147.671 36.6267 147.511 36.84C147.351 37.0533 147.164 37.24 146.951 37.4C146.844 37.56 146.684 37.72 146.471 37.88C146.311 37.9867 146.124 38.12 145.911 38.28C145.911 38.7067 145.884 39.16 145.831 39.64C145.777 40.0667 145.777 40.4933 145.831 40.92C145.884 41.56 145.911 42.2 145.911 42.84C145.964 43.48 146.097 44.0933 146.311 44.68C146.364 44.7867 146.417 44.92 146.471 45.08C146.524 45.24 146.577 45.3733 146.631 45.48C147.697 45.2133 148.657 44.84 149.511 44.36C150.417 43.8267 151.297 43.24 152.151 42.6C153.271 41.5333 154.311 40.4933 155.271 39.48C156.284 38.4667 157.031 37.2667 157.511 35.88C157.511 35.88 157.564 35.7733 157.671 35.56C157.777 35.6133 157.857 35.64 157.911 35.64C157.964 35.64 158.044 35.6667 158.151 35.72C158.204 35.8267 158.257 35.96 158.311 36.12C158.364 36.28 158.417 36.44 158.471 36.6C158.524 36.4933 158.551 36.4133 158.551 36.36C158.604 36.3067 158.657 36.2267 158.711 36.12C158.711 36.3867 158.711 36.6267 158.711 36.84C158.764 37 158.791 37.16 158.791 37.32H158.871C158.871 37.2133 158.871 37.1333 158.871 37.08C158.924 36.9733 158.977 36.8133 159.031 36.6C159.084 36.8667 159.111 37.1067 159.111 37.32C159.111 37.48 159.137 37.6667 159.191 37.88H159.271C159.271 37.72 159.271 37.5867 159.271 37.48C159.324 37.32 159.351 37.16 159.351 37C159.457 37.4267 159.484 37.7733 159.431 38.04C159.431 38.2533 159.351 38.5733 159.191 39C158.551 40.2267 157.671 41.4 156.551 42.52C155.484 43.5867 154.444 44.52 153.431 45.32C152.684 45.9067 151.857 46.4933 150.951 47.08C150.631 47.2933 150.284 47.48 149.911 47.64C149.591 47.8 149.217 47.9067 148.791 47.96C148.791 47.96 148.684 48.0133 148.471 48.12C147.831 47.9067 147.164 47.72 146.471 47.56C145.831 47.4 145.164 47.2133 144.471 47C143.244 46.6267 142.284 45.8 141.591 44.52C141.111 43.56 140.791 42.52 140.631 41.4C140.311 39.64 140.284 37.8267 140.551 35.96C140.871 32.5467 141.884 29.4 143.591 26.52C143.857 26.0933 144.124 25.6933 144.391 25.32C144.711 24.9467 145.004 24.5467 145.271 24.12C145.484 23.8 145.724 23.5333 145.991 23.32C146.257 23.1067 146.524 22.8667 146.791 22.6C148.284 21.2667 149.937 21.1067 151.751 22.12C152.017 22.2267 152.231 22.3333 152.391 22.44C152.604 22.5467 152.817 22.68 153.031 22.84C153.404 23.0533 153.724 23.3467 153.991 23.72C154.097 23.8267 154.204 24.04 154.311 24.36C154.417 25.1067 154.391 25.8 154.231 26.44C154.071 27.08 153.857 27.72 153.591 28.36C153.431 28.7867 153.244 29.1867 153.031 29.56C152.871 29.88 152.711 30.2267 152.551 30.6C152.444 30.6 152.391 30.6267 152.391 30.68C152.337 30.5733 152.311 30.52 152.311 30.52C152.257 30.5733 152.231 30.6267 152.231 30.68C151.911 30.7867 151.911 30.92 152.231 31.08L152.151 31ZM152.951 29.24C152.631 29.24 152.631 29.3467 152.951 29.56V29.24C153.111 29.1333 153.111 29 152.951 28.84V29.24ZM151.351 23.96C151.244 24.0667 151.137 24.1733 151.031 24.28C150.924 24.3867 150.817 24.4933 150.711 24.6C150.444 25.0267 150.151 25.4533 149.831 25.88C149.564 26.3067 149.297 26.76 149.031 27.24C148.391 28.4667 147.831 29.72 147.351 31C146.924 32.28 146.577 33.5867 146.311 34.92C146.311 35.0267 146.311 35.16 146.311 35.32C146.364 35.4267 146.391 35.56 146.391 35.72C146.657 35.4 146.871 35.1067 147.031 34.84C147.244 34.5733 147.457 34.3067 147.671 34.04C148.364 33.1333 148.951 32.2 149.431 31.24C149.964 30.28 150.444 29.2667 150.871 28.2C151.137 27.56 151.324 26.8933 151.431 26.2C151.537 25.5067 151.511 24.76 151.351 23.96ZM144.951 41.8V39.72V41.8ZM153.991 25.64H153.831C153.831 25.7467 153.831 25.8533 153.831 25.96C153.884 26.0133 153.911 26.0933 153.911 26.2H153.991V25.64ZM145.111 37H145.191V36.44H145.111V37ZM145.351 35.32H145.271V35.72H145.351V35.32ZM153.751 26.84H153.671C153.671 26.8933 153.671 26.9467 153.671 27C153.724 27.0533 153.751 27.1067 153.751 27.16H153.831C153.831 27 153.804 26.8933 153.751 26.84ZM153.351 28.28C153.404 28.2267 153.431 28.2 153.431 28.2V27.96H153.351V28.28ZM153.591 27.4C153.537 27.4 153.511 27.4267 153.511 27.48V27.72H153.591V27.4ZM152.231 30.68C152.231 30.6267 152.257 30.5733 152.311 30.52C152.311 30.5733 152.337 30.6267 152.391 30.68C152.391 30.7333 152.391 30.8133 152.391 30.92C152.391 30.9733 152.311 31 152.151 31L152.231 31.08V30.68ZM179.206 16.84C178.886 16.84 178.673 16.8667 178.566 16.92C178.46 16.92 178.38 16.9467 178.326 17C178.273 17 178.193 17 178.086 17C177.66 17.0533 177.206 17.08 176.726 17.08C176.3 17.08 175.873 17.1333 175.446 17.24C174.806 17.2933 174.166 17.3467 173.526 17.4C172.886 17.4533 172.246 17.5067 171.606 17.56C170.913 17.6667 170.246 17.7467 169.606 17.8C168.913 17.8533 168.193 17.9067 167.446 17.96C167.126 17.96 166.833 17.9867 166.566 18.04C166.246 18.04 165.926 18.0667 165.606 18.12C165.34 18.12 165.073 18.12 164.806 18.12C164.54 18.12 164.273 18.0667 164.006 17.96C163.686 17.8533 163.366 17.7733 163.046 17.72C162.673 17.6667 162.326 17.5067 162.006 17.24V16.76C162.06 16.7067 162.14 16.68 162.246 16.68C163.9 16.1467 165.473 15.7733 166.966 15.56C167.553 15.4533 168.14 15.3467 168.726 15.24C169.26 15.08 169.82 14.9467 170.406 14.84C170.833 14.7333 171.286 14.68 171.766 14.68C172.193 14.6267 172.62 14.5467 173.046 14.44C173.74 14.3333 174.433 14.2267 175.126 14.12C175.766 14.0133 176.433 13.88 177.126 13.72C177.393 13.6667 177.686 13.64 178.006 13.64C178.326 13.64 178.62 13.5867 178.886 13.48C179.1 13.48 179.366 13.4267 179.686 13.32C179.846 12.3067 180.006 11.32 180.166 10.36C180.326 9.4 180.54 8.44 180.806 7.48C180.913 7 181.02 6.52 181.126 6.04C181.286 5.50666 181.446 4.97333 181.606 4.44C181.713 3.90667 181.926 3.58667 182.246 3.48C182.62 3.42666 182.886 3.53333 183.046 3.8C183.26 4.01333 183.5 4.2 183.766 4.36C184.086 4.57333 184.273 4.81333 184.326 5.08C184.433 5.34667 184.513 5.66667 184.566 6.04C184.673 6.62667 184.726 7.21333 184.726 7.8C184.726 8.33333 184.7 8.89333 184.646 9.48C184.646 9.90666 184.62 10.3067 184.566 10.68C184.566 11.0533 184.54 11.4533 184.486 11.88V12.6C184.806 12.5467 185.126 12.52 185.446 12.52C185.766 12.52 186.06 12.4933 186.326 12.44C186.646 12.3333 186.966 12.2533 187.286 12.2C187.606 12.1467 187.926 12.0933 188.246 12.04C188.673 11.9867 189.1 11.96 189.526 11.96C190.006 11.96 190.46 11.9333 190.886 11.88C191.633 11.8267 192.326 11.8 192.966 11.8C193.66 11.7467 194.38 11.6933 195.126 11.64C195.233 11.64 195.5 11.5867 195.926 11.48C196.46 11.7467 196.993 12.0133 197.526 12.28C198.06 12.5467 198.62 12.8133 199.206 13.08C199.153 13.2933 198.993 13.4533 198.726 13.56C198.14 13.6667 197.58 13.8 197.046 13.96C196.566 14.12 196.06 14.28 195.526 14.44C194.78 14.7067 194.033 14.92 193.286 15.08C192.593 15.1867 191.873 15.2933 191.126 15.4C190.593 15.5067 190.06 15.5867 189.526 15.64C188.993 15.6933 188.433 15.7733 187.846 15.88C187.526 15.9867 187.18 16.04 186.806 16.04C186.486 16.04 186.14 16.0667 185.766 16.12C185.5 16.12 185.26 16.1467 185.046 16.2C184.833 16.2 184.593 16.2267 184.326 16.28C184.22 16.4933 184.166 16.6267 184.166 16.68C184.166 17.1067 184.166 17.5067 184.166 17.88C184.166 18.2533 184.113 18.6267 184.006 19C183.9 19.5867 183.846 20.1467 183.846 20.68C183.9 21.2133 183.873 21.7467 183.766 22.28C183.66 22.7067 183.606 23.1333 183.606 23.56C183.66 23.9867 183.606 24.4133 183.446 24.84V25.08L183.206 27.96C183.206 28.1733 183.18 28.3867 183.126 28.6C183.126 28.8133 183.1 29.0533 183.046 29.32C183.046 29.5333 183.046 29.7467 183.046 29.96C183.046 30.12 182.993 30.3067 182.886 30.52V30.68C182.833 31.2667 182.78 31.8267 182.726 32.36C182.726 32.8933 182.7 33.4267 182.646 33.96C182.646 34.2267 182.62 34.4933 182.566 34.76C182.566 35.0267 182.54 35.2933 182.486 35.56C182.486 35.8267 182.486 36.0933 182.486 36.36C182.486 36.6267 182.433 36.8933 182.326 37.16V37.4C182.273 37.9867 182.246 38.5733 182.246 39.16C182.246 39.6933 182.193 40.2533 182.086 40.84C181.98 41.3733 181.953 41.9067 182.006 42.44C182.06 42.9733 182.033 43.5333 181.926 44.12C181.82 45.1867 181.766 46.28 181.766 47.4C181.82 48.52 181.82 49.64 181.766 50.76C181.766 51.0267 181.793 51.2933 181.846 51.56C181.9 51.88 181.926 52.1733 181.926 52.44C181.98 52.7067 182.006 52.9733 182.006 53.24C182.006 53.5067 182.033 53.7733 182.086 54.04C182.193 54.4667 182.246 54.8933 182.246 55.32C182.3 55.8 182.38 56.2533 182.486 56.68C182.593 57.1067 182.7 57.5333 182.806 57.96C182.913 58.3867 183.126 58.76 183.446 59.08V59.48C183.34 59.48 183.233 59.48 183.126 59.48C183.02 59.5333 182.913 59.5333 182.806 59.48C182.54 59.3733 182.3 59.2933 182.086 59.24C181.873 59.24 181.633 59.1867 181.366 59.08C180.673 58.9733 180.166 58.6 179.846 57.96C179.473 57.16 179.206 56.3067 179.046 55.4C178.886 54.5467 178.726 53.72 178.566 52.92C178.406 52.12 178.246 51.2933 178.086 50.44C177.98 49.7467 177.846 49.08 177.686 48.44C177.58 47.7467 177.473 47.0267 177.366 46.28V46.12C177.313 45.16 177.26 44.2267 177.206 43.32C177.153 42.36 177.153 41.4 177.206 40.44C177.206 39.8533 177.18 39.2933 177.126 38.76C177.126 38.2267 177.153 37.6667 177.206 37.08C177.313 36.3867 177.34 35.72 177.286 35.08C177.286 34.44 177.34 33.7733 177.446 33.08C177.5 32.6533 177.5 32.2533 177.446 31.88C177.446 31.5067 177.5 31.1333 177.606 30.76C177.713 30.28 177.766 29.8267 177.766 29.4C177.766 28.92 177.82 28.44 177.926 27.96C178.033 27.5867 178.06 27.24 178.006 26.92C178.006 26.5467 178.033 26.1733 178.086 25.8L178.326 23.4L178.806 19.8C178.86 19.48 178.886 19.16 178.886 18.84C178.94 18.4667 178.993 18.0933 179.046 17.72C179.046 17.6133 179.046 17.5067 179.046 17.4C179.1 17.24 179.153 17.0533 179.206 16.84ZM184.086 5.08H184.006V7.8H184.086V5.08ZM181.126 43.56H181.206V42.28H181.126V43.56ZM181.526 37.08C181.42 37.5067 181.42 37.8267 181.526 38.04V37.08ZM181.846 33.32H181.926V32.44H181.846V33.32ZM182.006 31.24H182.086V30.44H182.006V31.24ZM183.206 19.08H183.126V19.88H183.206V19.08ZM182.246 28.36H182.166V29.24H182.246V28.36ZM181.366 39.64H181.286V40.44H181.366V39.64ZM181.606 35.64C181.766 35.4267 181.766 35.08 181.606 34.6V35.64ZM182.326 27.16C182.38 27.2133 182.433 27.24 182.486 27.24V26.6H182.406C182.353 26.7067 182.326 26.8933 182.326 27.16ZM182.646 24.76H182.566V25.4H182.646V24.76ZM182.806 22.92H182.726V23.56H182.806V22.92ZM182.966 21.72V21.08V21.72ZM183.446 17.08H183.286V17.72H183.366C183.366 17.4533 183.393 17.24 183.446 17.08ZM183.926 10.28H183.846V10.68H183.926V10.28ZM181.206 50.04H181.126V50.36H181.206V50.04ZM198.782 42.92C198.729 43.1867 198.622 43.48 198.462 43.8C198.302 44.0667 198.142 44.3333 197.982 44.6C197.609 45.1867 197.235 45.8 196.862 46.44C196.489 47.08 196.089 47.6933 195.662 48.28C195.395 48.76 195.102 49.2133 194.782 49.64C194.462 50.0667 194.035 50.4133 193.502 50.68C193.022 51 192.542 51.0533 192.062 50.84L189.902 50.36C188.942 50.2 188.195 49.64 187.662 48.68C186.969 47.6667 186.622 46.4933 186.622 45.16V44.36C186.569 43.6133 186.622 42.92 186.782 42.28C186.889 41.5867 186.995 40.92 187.102 40.28C187.635 38.3067 188.409 36.3067 189.422 34.28C190.275 32.84 191.155 31.5333 192.062 30.36C192.542 29.7733 193.022 29.2133 193.502 28.68C193.982 28.0933 194.515 27.56 195.102 27.08C195.369 26.8133 195.662 26.6 195.982 26.44C196.355 26.2267 196.702 26.0133 197.022 25.8C197.662 25.3733 198.302 25.16 198.942 25.16C199.635 25.16 200.302 25.2933 200.942 25.56C201.689 25.88 202.329 26.4133 202.862 27.16C203.449 27.8533 203.795 28.5467 203.902 29.24C203.902 29.6667 203.982 30.12 204.142 30.6C204.249 30.44 204.382 30.3067 204.542 30.2C205.129 29.3467 205.689 28.52 206.222 27.72C206.755 26.92 207.315 26.0933 207.902 25.24C208.062 25.08 208.249 24.84 208.462 24.52C208.729 24.2 208.915 23.8533 209.022 23.48C209.182 23.1067 209.342 22.7333 209.502 22.36C209.555 22.2 209.582 22.0667 209.582 21.96C209.635 21.8533 209.689 21.7467 209.742 21.64C210.222 21.7467 210.675 21.88 211.102 22.04C211.529 22.2 211.902 22.4667 212.222 22.84C212.222 23.3733 212.195 23.9067 212.142 24.44C212.142 24.9733 212.062 25.5333 211.902 26.12C211.742 26.8667 211.582 27.5867 211.422 28.28C211.315 28.9733 211.182 29.6667 211.022 30.36C210.862 31.0533 210.729 31.6933 210.622 32.28C210.515 32.8667 210.409 33.5333 210.302 34.28C210.195 34.76 210.089 35.2667 209.982 35.8C209.929 36.28 209.849 36.7867 209.742 37.32C209.635 37.9067 209.555 38.4933 209.502 39.08C209.449 39.6667 209.342 40.2267 209.182 40.76C209.129 41.4 209.075 41.9867 209.022 42.52C209.022 43.0533 208.942 43.6133 208.782 44.2C208.675 44.68 208.622 45.16 208.622 45.64C208.622 46.12 208.569 46.6 208.462 47.08C208.355 47.56 208.302 48.0667 208.302 48.6C208.302 49.08 208.329 49.5867 208.382 50.12C208.435 50.5467 208.462 51 208.462 51.48C208.462 52.0133 208.462 52.52 208.462 53C208.462 53.16 208.515 53.4533 208.622 53.88C208.355 53.7733 208.115 53.6933 207.902 53.64C207.689 53.64 207.449 53.6133 207.182 53.56C206.862 53.4 206.622 53.1867 206.462 52.92C206.302 52.6533 206.169 52.36 206.062 52.04C205.955 51.6667 205.822 51.32 205.662 51C205.502 50.68 205.369 50.36 205.262 50.04C205.262 49.7733 205.235 49.5333 205.182 49.32C205.129 49.1067 205.102 48.8667 205.102 48.6C205.049 48.1733 204.995 47.7467 204.942 47.32C204.942 46.84 204.915 46.36 204.862 45.88C204.755 44.8667 204.675 43.88 204.622 42.92C204.622 41.96 204.649 40.9733 204.702 39.96C204.755 39.5333 204.782 39.1067 204.782 38.68C204.835 38.2533 204.915 37.8533 205.022 37.48C205.129 37.2133 205.155 36.9467 205.102 36.68C205.102 36.36 205.155 36.0667 205.262 35.8C205.369 35.2133 205.475 34.6267 205.582 34.04C205.689 33.4 205.822 32.7867 205.982 32.2C205.982 32.0933 205.982 32.0133 205.982 31.96C206.035 31.8533 206.062 31.7467 206.062 31.64C206.115 31.3733 206.195 30.92 206.302 30.28C205.875 30.8667 205.502 31.4267 205.182 31.96C204.915 32.4933 204.595 32.9733 204.222 33.4C203.795 34.1467 203.395 34.8667 203.022 35.56C202.702 36.2 202.302 36.8667 201.822 37.56C201.395 38.04 200.995 38.6 200.622 39.24C200.249 39.8267 199.902 40.4133 199.582 41C199.529 41.1067 199.449 41.2133 199.342 41.32C199.289 41.3733 199.235 41.4533 199.182 41.56C199.129 41.56 199.075 41.56 199.022 41.56C199.022 41.5067 198.995 41.48 198.942 41.48C198.889 41.5333 198.835 41.6133 198.782 41.72C198.835 41.88 198.862 42.0933 198.862 42.36C198.809 42.36 198.782 42.4667 198.782 42.68C198.622 42.7333 198.622 42.8133 198.782 42.92ZM191.982 47.88C192.355 47.4533 192.729 47.08 193.102 46.76C193.475 46.44 193.795 46.0933 194.062 45.72C194.489 45.1333 194.942 44.5467 195.422 43.96C195.902 43.32 196.355 42.7067 196.782 42.12C197.635 41 198.435 39.8533 199.182 38.68C199.929 37.4533 200.675 36.2267 201.422 35C201.742 34.4667 202.062 33.9333 202.382 33.4C202.755 32.8133 203.155 32.2533 203.582 31.72C203.529 31.56 203.475 31.3467 203.422 31.08C203.369 30.8133 203.289 30.5733 203.182 30.36C203.129 30.0933 203.049 29.8267 202.942 29.56C202.889 29.24 202.809 28.92 202.702 28.6C202.595 28.28 202.462 28.04 202.302 27.88C202.195 27.6667 202.062 27.4267 201.902 27.16L201.022 26.28C200.702 26.1733 200.435 26.1733 200.222 26.28C200.062 26.3867 199.929 26.4933 199.822 26.6C199.555 26.8667 199.315 27.1333 199.102 27.4C198.889 27.6133 198.649 27.8533 198.382 28.12C197.742 29.1867 197.182 30.1467 196.702 31C195.582 32.8667 194.729 34.6267 194.142 36.28C193.822 37.08 193.502 37.9333 193.182 38.84C192.915 39.6933 192.675 40.52 192.462 41.32C192.355 42.0133 192.222 42.6533 192.062 43.24C191.955 43.7733 191.902 44.36 191.902 45V45.32C191.742 45.6933 191.689 46.0667 191.742 46.44C191.795 46.8133 191.795 47.2133 191.742 47.64C191.742 47.64 191.822 47.72 191.982 47.88ZM190.942 45.72H191.022V44.52H190.942V45.72ZM191.262 43.32H191.102C191.102 43.48 191.129 43.6133 191.182 43.72H191.262V43.32ZM208.462 41.96H208.382V42.12H208.462V41.96ZM191.422 42.04V41.88V41.48V42.04ZM208.462 40.44H208.542V40.2H208.462V40.44ZM208.222 43.72V43.48V43.72ZM191.342 42.6H191.262C191.315 42.6533 191.342 42.7067 191.342 42.76V42.6ZM198.862 42.36C198.969 42.36 199.022 42.4133 199.022 42.52L198.862 42.68V42.36ZM199.262 42.12V41.96V41.88V42.04C199.262 42.0933 199.289 42.12 199.342 42.12H199.262ZM198.862 42.68C198.862 42.84 198.835 42.92 198.782 42.92V42.68H198.862ZM224.777 39.88C224.67 40.1467 224.75 40.4667 225.017 40.84C226.137 42.7067 226.99 44.5467 227.577 46.36C227.844 47.3733 228.057 48.3867 228.217 49.4C228.43 50.36 228.484 51.3733 228.377 52.44C228.11 54.2 227.524 55.7733 226.617 57.16C225.337 59.0267 223.577 60.1467 221.337 60.52C220.91 60.6267 220.51 60.68 220.137 60.68C219.817 60.68 219.444 60.68 219.017 60.68C218.004 60.5733 217.07 60.3333 216.217 59.96C215.844 59.7467 215.497 59.48 215.177 59.16C214.91 58.8933 214.724 58.5467 214.617 58.12C214.404 57.5333 214.297 56.9467 214.297 56.36C214.244 55.8267 214.27 55.2667 214.377 54.68C214.537 53.5067 214.804 52.3867 215.177 51.32C215.604 50.3067 216.11 49.2667 216.697 48.2C217.124 47.4 217.55 46.6267 217.977 45.88C218.457 45.1333 218.99 44.3867 219.577 43.64C219.79 43.3733 219.977 43.1333 220.137 42.92C220.35 42.6533 220.564 42.3867 220.777 42.12C220.51 41.6933 220.244 41.2667 219.977 40.84C219.764 40.4133 219.524 39.9867 219.257 39.56C218.83 38.9733 218.43 38.3867 218.057 37.8C217.684 37.2133 217.284 36.6267 216.857 36.04C216.537 35.6133 216.244 35.16 215.977 34.68C215.764 34.2 215.604 33.6667 215.497 33.08C215.39 32.7067 215.31 32.36 215.257 32.04C215.204 31.6667 215.23 31.2667 215.337 30.84C215.39 30.4667 215.444 30.12 215.497 29.8C215.55 29.4267 215.63 29.08 215.737 28.76C215.844 28.44 215.924 28.1467 215.977 27.88C216.084 27.56 216.217 27.2667 216.377 27C216.804 26.2 217.23 25.4533 217.657 24.76C218.137 24.0133 218.724 23.3467 219.417 22.76C219.737 22.4933 220.084 22.2533 220.457 22.04C220.83 21.8267 221.15 21.64 221.417 21.48H222.857C223.124 21.5867 223.364 21.72 223.577 21.88C223.844 21.9867 224.11 22.0933 224.377 22.2C223.79 22.68 223.337 23.24 223.017 23.88C222.697 24.52 222.404 25.16 222.137 25.8C221.977 26.2267 221.817 26.68 221.657 27.16C221.497 27.5867 221.364 28.04 221.257 28.52C221.097 29.1067 220.99 29.6933 220.937 30.28C220.884 30.8667 220.857 31.4533 220.857 32.04C220.804 32.9467 220.91 33.8267 221.177 34.68C221.497 35.48 221.897 36.2533 222.377 37C222.59 37.32 222.804 37.64 223.017 37.96C223.23 38.28 223.47 38.6 223.737 38.92C223.844 38.8133 223.924 38.76 223.977 38.76C224.03 38.7067 224.11 38.6267 224.217 38.52C224.484 38.2533 224.724 38.0133 224.937 37.8C225.204 37.5333 225.47 37.2667 225.737 37C226.27 36.52 226.777 36.0133 227.257 35.48C227.79 34.9467 228.35 34.44 228.937 33.96C229.577 33.4267 230.19 32.92 230.777 32.44C231.417 31.9067 232.11 31.4267 232.857 31L234.537 30.04C234.857 29.9333 235.097 29.88 235.257 29.88H236.697L237.017 30.2C236.91 30.3067 236.857 30.36 236.857 30.36C236.11 30.36 235.417 30.52 234.777 30.84C234.19 31.16 233.604 31.5333 233.017 31.96C232.27 32.4933 231.55 33.0267 230.857 33.56C230.217 34.0933 229.604 34.7067 229.017 35.4C228.324 36.1467 227.604 36.8933 226.857 37.64C226.164 38.3867 225.47 39.1333 224.777 39.88ZM216.857 51.72C216.804 51.6133 216.777 51.5067 216.777 51.4H216.617L216.857 51.64C216.857 51.9067 216.804 52.1467 216.697 52.36C216.59 52.6267 216.484 52.8933 216.377 53.16C216.324 53.0533 216.27 52.9733 216.217 52.92C216.217 52.8667 216.19 52.7867 216.137 52.68V53.32C215.817 53.5333 215.817 53.72 216.137 53.88C216.084 54.04 216.057 54.28 216.057 54.6H215.977C215.924 54.4933 215.897 54.3867 215.897 54.28C215.897 54.2267 215.87 54.1467 215.817 54.04C215.657 54.7867 215.55 55.32 215.497 55.64C215.497 55.96 215.55 56.2533 215.657 56.52C215.604 56.7867 215.577 56.9733 215.577 57.08C215.577 57.24 215.55 57.3733 215.497 57.48C215.764 57.7467 215.897 57.9067 215.897 57.96C216.057 58.7067 216.404 59.2133 216.937 59.48C217.204 59.7467 217.497 59.8267 217.817 59.72C218.137 59.6667 218.43 59.6133 218.697 59.56C219.604 59.3467 220.377 59 221.017 58.52C221.71 58.0933 222.27 57.4533 222.697 56.6C223.017 55.96 223.23 55.2933 223.337 54.6C223.444 53.9067 223.524 53.1867 223.577 52.44C223.63 51.8533 223.604 51.2667 223.497 50.68C223.444 50.0933 223.364 49.5067 223.257 48.92C223.097 48.12 222.884 47.3467 222.617 46.6C222.35 45.8 222.057 45.0267 221.737 44.28C221.737 44.2267 221.63 44.0933 221.417 43.88C221.31 44.0933 221.204 44.2533 221.097 44.36C220.884 44.7333 220.67 45.08 220.457 45.4C220.244 45.72 220.004 46.0667 219.737 46.44L218.297 48.84C218.084 49.2133 217.897 49.5867 217.737 49.96C217.577 50.3333 217.39 50.7067 217.177 51.08C217.124 51.1867 217.07 51.2933 217.017 51.4C216.964 51.5067 216.91 51.6133 216.857 51.72ZM227.497 52.36H227.577V51.16H227.497V52.36ZM219.817 32.2H219.897V31.72H219.817V32.2ZM216.457 52.28H216.297C216.297 52.3867 216.324 52.4667 216.377 52.52H216.457V52.28ZM215.817 55.48V55H215.897V55.48H215.817ZM216.057 53.88V53.32C216.217 53.5333 216.217 53.72 216.057 53.88ZM235.144 16.84C234.824 16.84 234.61 16.8667 234.504 16.92C234.397 16.92 234.317 16.9467 234.264 17C234.21 17 234.13 17 234.024 17C233.597 17.0533 233.144 17.08 232.664 17.08C232.237 17.08 231.81 17.1333 231.384 17.24C230.744 17.2933 230.104 17.3467 229.464 17.4C228.824 17.4533 228.184 17.5067 227.544 17.56C226.85 17.6667 226.184 17.7467 225.544 17.8C224.85 17.8533 224.13 17.9067 223.384 17.96C223.064 17.96 222.77 17.9867 222.504 18.04C222.184 18.04 221.864 18.0667 221.544 18.12C221.277 18.12 221.01 18.12 220.744 18.12C220.477 18.12 220.21 18.0667 219.944 17.96C219.624 17.8533 219.304 17.7733 218.984 17.72C218.61 17.6667 218.264 17.5067 217.944 17.24V16.76C217.997 16.7067 218.077 16.68 218.184 16.68C219.837 16.1467 221.41 15.7733 222.904 15.56C223.49 15.4533 224.077 15.3467 224.664 15.24C225.197 15.08 225.757 14.9467 226.344 14.84C226.77 14.7333 227.224 14.68 227.704 14.68C228.13 14.6267 228.557 14.5467 228.984 14.44C229.677 14.3333 230.37 14.2267 231.064 14.12C231.704 14.0133 232.37 13.88 233.064 13.72C233.33 13.6667 233.624 13.64 233.944 13.64C234.264 13.64 234.557 13.5867 234.824 13.48C235.037 13.48 235.304 13.4267 235.624 13.32C235.784 12.3067 235.944 11.32 236.104 10.36C236.264 9.4 236.477 8.44 236.744 7.48C236.85 7 236.957 6.52 237.064 6.04C237.224 5.50666 237.384 4.97333 237.544 4.44C237.65 3.90667 237.864 3.58667 238.184 3.48C238.557 3.42666 238.824 3.53333 238.984 3.8C239.197 4.01333 239.437 4.2 239.704 4.36C240.024 4.57333 240.21 4.81333 240.264 5.08C240.37 5.34667 240.45 5.66667 240.504 6.04C240.61 6.62667 240.664 7.21333 240.664 7.8C240.664 8.33333 240.637 8.89333 240.584 9.48C240.584 9.90666 240.557 10.3067 240.504 10.68C240.504 11.0533 240.477 11.4533 240.424 11.88V12.6C240.744 12.5467 241.064 12.52 241.384 12.52C241.704 12.52 241.997 12.4933 242.264 12.44C242.584 12.3333 242.904 12.2533 243.224 12.2C243.544 12.1467 243.864 12.0933 244.184 12.04C244.61 11.9867 245.037 11.96 245.464 11.96C245.944 11.96 246.397 11.9333 246.824 11.88C247.57 11.8267 248.264 11.8 248.904 11.8C249.597 11.7467 250.317 11.6933 251.064 11.64C251.17 11.64 251.437 11.5867 251.864 11.48C252.397 11.7467 252.93 12.0133 253.464 12.28C253.997 12.5467 254.557 12.8133 255.144 13.08C255.09 13.2933 254.93 13.4533 254.664 13.56C254.077 13.6667 253.517 13.8 252.984 13.96C252.504 14.12 251.997 14.28 251.464 14.44C250.717 14.7067 249.97 14.92 249.224 15.08C248.53 15.1867 247.81 15.2933 247.064 15.4C246.53 15.5067 245.997 15.5867 245.464 15.64C244.93 15.6933 244.37 15.7733 243.784 15.88C243.464 15.9867 243.117 16.04 242.744 16.04C242.424 16.04 242.077 16.0667 241.704 16.12C241.437 16.12 241.197 16.1467 240.984 16.2C240.77 16.2 240.53 16.2267 240.264 16.28C240.157 16.4933 240.104 16.6267 240.104 16.68C240.104 17.1067 240.104 17.5067 240.104 17.88C240.104 18.2533 240.05 18.6267 239.944 19C239.837 19.5867 239.784 20.1467 239.784 20.68C239.837 21.2133 239.81 21.7467 239.704 22.28C239.597 22.7067 239.544 23.1333 239.544 23.56C239.597 23.9867 239.544 24.4133 239.384 24.84V25.08L239.144 27.96C239.144 28.1733 239.117 28.3867 239.064 28.6C239.064 28.8133 239.037 29.0533 238.984 29.32C238.984 29.5333 238.984 29.7467 238.984 29.96C238.984 30.12 238.93 30.3067 238.824 30.52V30.68C238.77 31.2667 238.717 31.8267 238.664 32.36C238.664 32.8933 238.637 33.4267 238.584 33.96C238.584 34.2267 238.557 34.4933 238.504 34.76C238.504 35.0267 238.477 35.2933 238.424 35.56C238.424 35.8267 238.424 36.0933 238.424 36.36C238.424 36.6267 238.37 36.8933 238.264 37.16V37.4C238.21 37.9867 238.184 38.5733 238.184 39.16C238.184 39.6933 238.13 40.2533 238.024 40.84C237.917 41.3733 237.89 41.9067 237.944 42.44C237.997 42.9733 237.97 43.5333 237.864 44.12C237.757 45.1867 237.704 46.28 237.704 47.4C237.757 48.52 237.757 49.64 237.704 50.76C237.704 51.0267 237.73 51.2933 237.784 51.56C237.837 51.88 237.864 52.1733 237.864 52.44C237.917 52.7067 237.944 52.9733 237.944 53.24C237.944 53.5067 237.97 53.7733 238.024 54.04C238.13 54.4667 238.184 54.8933 238.184 55.32C238.237 55.8 238.317 56.2533 238.424 56.68C238.53 57.1067 238.637 57.5333 238.744 57.96C238.85 58.3867 239.064 58.76 239.384 59.08V59.48C239.277 59.48 239.17 59.48 239.064 59.48C238.957 59.5333 238.85 59.5333 238.744 59.48C238.477 59.3733 238.237 59.2933 238.024 59.24C237.81 59.24 237.57 59.1867 237.304 59.08C236.61 58.9733 236.104 58.6 235.784 57.96C235.41 57.16 235.144 56.3067 234.984 55.4C234.824 54.5467 234.664 53.72 234.504 52.92C234.344 52.12 234.184 51.2933 234.024 50.44C233.917 49.7467 233.784 49.08 233.624 48.44C233.517 47.7467 233.41 47.0267 233.304 46.28V46.12C233.25 45.16 233.197 44.2267 233.144 43.32C233.09 42.36 233.09 41.4 233.144 40.44C233.144 39.8533 233.117 39.2933 233.064 38.76C233.064 38.2267 233.09 37.6667 233.144 37.08C233.25 36.3867 233.277 35.72 233.224 35.08C233.224 34.44 233.277 33.7733 233.384 33.08C233.437 32.6533 233.437 32.2533 233.384 31.88C233.384 31.5067 233.437 31.1333 233.544 30.76C233.65 30.28 233.704 29.8267 233.704 29.4C233.704 28.92 233.757 28.44 233.864 27.96C233.97 27.5867 233.997 27.24 233.944 26.92C233.944 26.5467 233.97 26.1733 234.024 25.8L234.264 23.4L234.744 19.8C234.797 19.48 234.824 19.16 234.824 18.84C234.877 18.4667 234.93 18.0933 234.984 17.72C234.984 17.6133 234.984 17.5067 234.984 17.4C235.037 17.24 235.09 17.0533 235.144 16.84ZM240.024 5.08H239.944V7.8H240.024V5.08ZM237.064 43.56H237.144V42.28H237.064V43.56ZM237.464 37.08C237.357 37.5067 237.357 37.8267 237.464 38.04V37.08ZM237.784 33.32H237.864V32.44H237.784V33.32ZM237.944 31.24H238.024V30.44H237.944V31.24ZM239.144 19.08H239.064V19.88H239.144V19.08ZM238.184 28.36H238.104V29.24H238.184V28.36ZM237.304 39.64H237.224V40.44H237.304V39.64ZM237.544 35.64C237.704 35.4267 237.704 35.08 237.544 34.6V35.64ZM238.264 27.16C238.317 27.2133 238.37 27.24 238.424 27.24V26.6H238.344C238.29 26.7067 238.264 26.8933 238.264 27.16ZM238.584 24.76H238.504V25.4H238.584V24.76ZM238.744 22.92H238.664V23.56H238.744V22.92ZM238.904 21.72V21.08V21.72ZM239.384 17.08H239.224V17.72H239.304C239.304 17.4533 239.33 17.24 239.384 17.08ZM239.864 10.28H239.784V10.68H239.864V10.28ZM237.144 50.04H237.064V50.36H237.144V50.04ZM255.119 31C255.173 31.2133 255.119 31.3733 254.959 31.48C254.853 31.5867 254.773 31.7467 254.719 31.96H254.399C254.186 32.2267 253.973 32.52 253.759 32.84C253.599 33.1067 253.413 33.3733 253.199 33.64C252.826 34.0667 252.453 34.4933 252.079 34.92C251.759 35.3467 251.413 35.7733 251.039 36.2C250.826 36.4133 250.639 36.6267 250.479 36.84C250.319 37.0533 250.133 37.24 249.919 37.4C249.813 37.56 249.653 37.72 249.439 37.88C249.279 37.9867 249.093 38.12 248.879 38.28C248.879 38.7067 248.853 39.16 248.799 39.64C248.746 40.0667 248.746 40.4933 248.799 40.92C248.853 41.56 248.879 42.2 248.879 42.84C248.933 43.48 249.066 44.0933 249.279 44.68C249.333 44.7867 249.386 44.92 249.439 45.08C249.493 45.24 249.546 45.3733 249.599 45.48C250.666 45.2133 251.626 44.84 252.479 44.36C253.386 43.8267 254.266 43.24 255.119 42.6C256.239 41.5333 257.279 40.4933 258.239 39.48C259.253 38.4667 259.999 37.2667 260.479 35.88C260.479 35.88 260.533 35.7733 260.639 35.56C260.746 35.6133 260.826 35.64 260.879 35.64C260.933 35.64 261.013 35.6667 261.119 35.72C261.173 35.8267 261.226 35.96 261.279 36.12C261.333 36.28 261.386 36.44 261.439 36.6C261.493 36.4933 261.519 36.4133 261.519 36.36C261.573 36.3067 261.626 36.2267 261.679 36.12C261.679 36.3867 261.679 36.6267 261.679 36.84C261.733 37 261.759 37.16 261.759 37.32H261.839C261.839 37.2133 261.839 37.1333 261.839 37.08C261.893 36.9733 261.946 36.8133 261.999 36.6C262.053 36.8667 262.079 37.1067 262.079 37.32C262.079 37.48 262.106 37.6667 262.159 37.88H262.239C262.239 37.72 262.239 37.5867 262.239 37.48C262.293 37.32 262.319 37.16 262.319 37C262.426 37.4267 262.453 37.7733 262.399 38.04C262.399 38.2533 262.319 38.5733 262.159 39C261.519 40.2267 260.639 41.4 259.519 42.52C258.453 43.5867 257.413 44.52 256.399 45.32C255.653 45.9067 254.826 46.4933 253.919 47.08C253.599 47.2933 253.253 47.48 252.879 47.64C252.559 47.8 252.186 47.9067 251.759 47.96C251.759 47.96 251.653 48.0133 251.439 48.12C250.799 47.9067 250.133 47.72 249.439 47.56C248.799 47.4 248.133 47.2133 247.439 47C246.213 46.6267 245.253 45.8 244.559 44.52C244.079 43.56 243.759 42.52 243.599 41.4C243.279 39.64 243.253 37.8267 243.519 35.96C243.839 32.5467 244.853 29.4 246.559 26.52C246.826 26.0933 247.093 25.6933 247.359 25.32C247.679 24.9467 247.973 24.5467 248.239 24.12C248.453 23.8 248.693 23.5333 248.959 23.32C249.226 23.1067 249.493 22.8667 249.759 22.6C251.253 21.2667 252.906 21.1067 254.719 22.12C254.986 22.2267 255.199 22.3333 255.359 22.44C255.573 22.5467 255.786 22.68 255.999 22.84C256.373 23.0533 256.693 23.3467 256.959 23.72C257.066 23.8267 257.173 24.04 257.279 24.36C257.386 25.1067 257.359 25.8 257.199 26.44C257.039 27.08 256.826 27.72 256.559 28.36C256.399 28.7867 256.213 29.1867 255.999 29.56C255.839 29.88 255.679 30.2267 255.519 30.6C255.413 30.6 255.359 30.6267 255.359 30.68C255.306 30.5733 255.279 30.52 255.279 30.52C255.226 30.5733 255.199 30.6267 255.199 30.68C254.879 30.7867 254.879 30.92 255.199 31.08L255.119 31ZM255.919 29.24C255.599 29.24 255.599 29.3467 255.919 29.56V29.24C256.079 29.1333 256.079 29 255.919 28.84V29.24ZM254.319 23.96C254.213 24.0667 254.106 24.1733 253.999 24.28C253.893 24.3867 253.786 24.4933 253.679 24.6C253.413 25.0267 253.119 25.4533 252.799 25.88C252.533 26.3067 252.266 26.76 251.999 27.24C251.359 28.4667 250.799 29.72 250.319 31C249.893 32.28 249.546 33.5867 249.279 34.92C249.279 35.0267 249.279 35.16 249.279 35.32C249.333 35.4267 249.359 35.56 249.359 35.72C249.626 35.4 249.839 35.1067 249.999 34.84C250.213 34.5733 250.426 34.3067 250.639 34.04C251.333 33.1333 251.919 32.2 252.399 31.24C252.933 30.28 253.413 29.2667 253.839 28.2C254.106 27.56 254.293 26.8933 254.399 26.2C254.506 25.5067 254.479 24.76 254.319 23.96ZM247.919 41.8V39.72V41.8ZM256.959 25.64H256.799C256.799 25.7467 256.799 25.8533 256.799 25.96C256.853 26.0133 256.879 26.0933 256.879 26.2H256.959V25.64ZM248.079 37H248.159V36.44H248.079V37ZM248.319 35.32H248.239V35.72H248.319V35.32ZM256.719 26.84H256.639C256.639 26.8933 256.639 26.9467 256.639 27C256.693 27.0533 256.719 27.1067 256.719 27.16H256.799C256.799 27 256.773 26.8933 256.719 26.84ZM256.319 28.28C256.373 28.2267 256.399 28.2 256.399 28.2V27.96H256.319V28.28ZM256.559 27.4C256.506 27.4 256.479 27.4267 256.479 27.48V27.72H256.559V27.4ZM255.199 30.68C255.199 30.6267 255.226 30.5733 255.279 30.52C255.279 30.5733 255.306 30.6267 255.359 30.68C255.359 30.7333 255.359 30.8133 255.359 30.92C255.359 30.9733 255.279 31 255.119 31L255.199 31.08V30.68ZM284.335 23.48H285.375C285.588 23.5867 285.775 23.6933 285.935 23.8C286.095 23.8533 286.255 23.9333 286.415 24.04C286.575 24.1467 286.708 24.2533 286.815 24.36C286.922 24.4133 287.028 24.4933 287.135 24.6C287.295 24.7067 287.428 24.8133 287.535 24.92C287.695 24.9733 287.855 25.0267 288.015 25.08C288.548 25.2933 289.002 25.5867 289.375 25.96C289.748 26.3333 290.122 26.7333 290.495 27.16C291.402 28.3333 292.122 29.5067 292.655 30.68C292.815 31.16 292.975 31.64 293.135 32.12C293.348 32.5467 293.508 33 293.615 33.48C293.722 34.0667 293.802 34.6267 293.855 35.16C293.962 35.6933 293.908 36.2533 293.695 36.84C293.642 36.9467 293.615 37.0267 293.615 37.08C293.668 37.1333 293.695 37.2133 293.695 37.32C293.695 37.8533 293.642 38.3867 293.535 38.92C293.428 39.4 293.322 39.9067 293.215 40.44C293.162 41.24 292.948 42.0667 292.575 42.92C292.202 44.0933 291.562 45.16 290.655 46.12C290.228 46.5467 289.775 46.8933 289.295 47.16C288.815 47.4267 288.255 47.5333 287.615 47.48C287.402 47.48 287.268 47.4533 287.215 47.4C286.842 47.2933 286.468 47.1867 286.095 47.08C285.775 46.9733 285.428 46.8667 285.055 46.76C283.455 46.3333 282.175 45.4267 281.215 44.04C280.522 43.0267 280.015 41.7733 279.695 40.28C279.375 38.68 279.295 37.08 279.455 35.48C279.562 34.68 279.642 33.88 279.695 33.08C279.748 32.2267 279.882 31.4 280.095 30.6C280.308 29.64 280.575 28.7333 280.895 27.88C281.268 26.9733 281.748 26.12 282.335 25.32C282.815 24.6267 283.482 24.0133 284.335 23.48ZM286.815 25.72C286.708 25.9333 286.602 26.12 286.495 26.28C286.442 26.3867 286.388 26.52 286.335 26.68C286.175 27.2667 285.988 27.8533 285.775 28.44C285.615 28.9733 285.482 29.5333 285.375 30.12C285.162 30.92 285.002 31.7467 284.895 32.6C284.842 33.4 284.788 34.2267 284.735 35.08C284.682 35.9867 284.655 36.8933 284.655 37.8C284.655 38.7067 284.708 39.6133 284.815 40.52C284.922 41.1067 285.028 41.6667 285.135 42.2C285.242 42.68 285.348 43.2133 285.455 43.8C285.562 44.0667 285.642 44.3333 285.695 44.6C285.802 44.8667 285.988 45.08 286.255 45.24C286.522 45.1333 286.868 44.9733 287.295 44.76C287.882 44.44 288.335 44.04 288.655 43.56C289.028 43.08 289.348 42.5467 289.615 41.96C290.095 40.9467 290.415 39.9067 290.575 38.84C290.788 37.72 290.895 36.6267 290.895 35.56C290.895 34.6 290.762 33.5333 290.495 32.36C290.388 31.6667 290.228 31.08 290.015 30.6C289.748 30.0133 289.455 29.4533 289.135 28.92C288.815 28.3867 288.495 27.8267 288.175 27.24C288.015 26.9733 287.828 26.7333 287.615 26.52C287.455 26.2533 287.188 25.9867 286.815 25.72ZM283.855 35.72H283.935V34.52H283.855V35.72ZM284.015 33.32H284.095V32.68H284.015V33.32ZM293.215 38.28H293.295V37.8H293.215V38.28ZM293.135 39.08H292.975C292.975 39.2933 293.002 39.4533 293.055 39.56H293.135V39.08ZM292.815 40.44H292.895V40.12H292.815V40.44ZM284.175 31.88H284.255V31.56H284.175V31.88ZM300.557 28.2C299.81 28.52 299.09 28.84 298.397 29.16C297.757 29.4267 297.09 29.6933 296.397 29.96C296.13 30.0667 295.997 30.1467 295.997 30.2C295.944 30.2 295.917 30.2 295.917 30.2C295.917 30.1467 295.917 30.12 295.917 30.12C295.864 30.0667 295.704 30.04 295.437 30.04C295.33 30.04 295.25 29.96 295.197 29.8C295.09 29.5867 294.957 29.48 294.797 29.48C294.957 29.2667 295.117 29.08 295.277 28.92C295.384 28.7067 295.544 28.5467 295.757 28.44C296.13 28.1733 296.424 27.9867 296.637 27.88C296.797 27.7733 296.957 27.6933 297.117 27.64C297.277 27.5333 297.437 27.4533 297.597 27.4C297.81 27.2933 298.13 27.1333 298.557 26.92C298.877 26.76 299.197 26.6 299.517 26.44C299.837 26.28 300.13 26.0933 300.397 25.88C300.504 25.8267 300.584 25.7733 300.637 25.72C300.69 25.6667 300.77 25.6133 300.877 25.56C300.984 24.8667 301.037 24.2 301.037 23.56C301.09 22.92 301.17 22.28 301.277 21.64C301.49 20.5733 301.65 19.48 301.757 18.36C301.917 17.24 302.13 16.1467 302.397 15.08C302.824 13.3733 303.304 11.7467 303.837 10.2C304.424 8.6 305.144 7.02667 305.997 5.48C306.317 4.89333 306.664 4.36 307.037 3.88C307.41 3.4 307.837 2.94666 308.317 2.52C308.637 2.25333 308.984 1.98667 309.357 1.72C309.73 1.45333 310.13 1.26666 310.557 1.16C310.984 1.05333 311.384 1 311.757 1C312.184 0.946664 312.61 1.05333 313.037 1.32C313.357 1.42666 313.65 1.56 313.917 1.72C314.237 1.88 314.557 2.04 314.877 2.2C314.824 2.25333 314.797 2.30666 314.797 2.36C314.797 2.41333 314.77 2.46666 314.717 2.52C313.704 3.21333 312.85 4.17333 312.157 5.4C311.517 6.62666 310.984 7.88 310.557 9.16C310.13 10.44 309.73 11.7467 309.357 13.08C309.144 13.88 308.957 14.68 308.797 15.48C308.637 16.2267 308.477 17 308.317 17.8C308.21 18.0667 308.157 18.36 308.157 18.68C308.157 18.9467 308.13 19.2133 308.077 19.48C308.024 19.8 307.97 20.12 307.917 20.44C307.864 20.76 307.81 21.1067 307.757 21.48C307.704 21.64 307.677 21.8267 307.677 22.04C307.73 22.2 307.757 22.3867 307.757 22.6C308.824 22.1733 309.89 21.8 310.957 21.48C312.077 21.16 313.197 20.8667 314.317 20.6C314.797 20.7067 315.25 20.8933 315.677 21.16C316.104 21.4267 316.584 21.6667 317.117 21.88C317.01 21.9867 316.904 22.0667 316.797 22.12C316.744 22.1733 316.664 22.2267 316.557 22.28C316.077 22.4933 315.597 22.7067 315.117 22.92C314.637 23.08 314.184 23.2933 313.757 23.56C312.904 23.9867 312.05 24.3333 311.197 24.6C310.397 24.8133 309.544 25.08 308.637 25.4L307.197 25.88C307.09 26.9467 307.01 27.9067 306.957 28.76C306.85 29.6133 306.77 30.4667 306.717 31.32C306.717 32.1733 306.664 33.0267 306.557 33.88C306.504 34.4667 306.477 35.0267 306.477 35.56C306.53 36.04 306.504 36.5467 306.397 37.08C306.29 37.56 306.237 38.0667 306.237 38.6C306.29 39.08 306.237 39.56 306.077 40.04C306.024 40.1467 305.997 40.2533 305.997 40.36C306.05 40.4133 306.077 40.4933 306.077 40.6C306.024 40.92 305.997 41.2667 305.997 41.64C305.997 41.96 305.944 42.3067 305.837 42.68C305.73 43.1067 305.65 43.5333 305.597 43.96C305.597 44.3867 305.57 44.8133 305.517 45.24C305.41 45.8267 305.357 46.3867 305.357 46.92C305.357 47.4533 305.304 48.0133 305.197 48.6C305.144 48.6533 305.117 48.76 305.117 48.92C305.117 49.5067 305.09 50.0933 305.037 50.68C305.037 51.2133 305.01 51.7733 304.957 52.36C304.904 52.68 304.877 53 304.877 53.32C304.877 53.64 304.85 53.9333 304.797 54.2C304.744 54.3067 304.69 54.4133 304.637 54.52C304.637 54.6267 304.61 54.7333 304.557 54.84C304.237 54.8933 303.89 54.84 303.517 54.68C303.304 54.5733 303.144 54.52 303.037 54.52C302.29 54.52 301.784 54.1467 301.517 53.4C301.464 52.6533 301.437 51.9333 301.437 51.24C301.437 50.5467 301.384 49.8267 301.277 49.08C301.17 48.4933 301.117 47.9067 301.117 47.32C301.17 46.7333 301.144 46.1467 301.037 45.56C300.93 44.9733 300.877 44.3867 300.877 43.8C300.93 43.16 300.904 42.5467 300.797 41.96C300.69 41.48 300.637 41 300.637 40.52C300.637 40.04 300.61 39.56 300.557 39.08C300.504 38.4933 300.45 37.9333 300.397 37.4C300.397 36.8667 300.397 36.3067 300.397 35.72V32.36C300.397 31.7733 300.397 31.2133 300.397 30.68C300.45 30.1467 300.504 29.5867 300.557 29V28.2ZM305.437 34.76C305.384 35.08 305.33 35.4 305.277 35.72C305.277 36.04 305.33 36.36 305.437 36.68V34.76ZM305.677 31.48C305.464 32.0667 305.464 32.5733 305.677 33V31.48ZM305.757 30.28H305.837V29.08H305.757V30.28ZM305.277 38.6H305.197V39.64H305.277V38.6ZM305.997 27.24H305.917V27.64V28.04H305.997V27.24ZM306.717 21.4H306.637V21.96H306.717V21.4ZM306.957 20.12H306.797C306.797 20.3333 306.824 20.4667 306.877 20.52H306.957V20.12ZM306.477 23.08H306.557V22.68H306.477V23.08ZM305.117 41.4H304.957C304.957 41.4533 304.957 41.5067 304.957 41.56C305.01 41.6133 305.037 41.6933 305.037 41.8H305.117V41.4ZM304.477 48.92H304.557V48.52H304.477V48.92ZM307.677 15.88H307.597V16.12H307.677V15.88ZM307.437 17.08V16.76V17.08ZM307.197 18.2H307.277V17.88H307.197V18.2ZM307.117 19H307.037V19.24H307.117V19ZM304.637 45.8H304.717V45.56H304.637V45.8ZM304.877 43.16H304.797V43.48H304.957C304.904 43.4267 304.877 43.32 304.877 43.16Z" fill="#FACE8D"/>
</svg>
